<svg xmlns="http://www.w3.org/2000/svg" viewBox="0 0 684.71 110.91"><defs><style>.cls-1{fill:#1d1d1b;}</style></defs><title>LOGO_THE_DOCKS</title><g id="Laag_2" data-name="Laag 2"><g id="Laag_1-2" data-name="Laag 1"><path class="cls-1" d="M13.75,1.6l.43.21L14.5,3l.42-.42.22-.85,1.17.42L18,1.92l.64.43L19.08,2l.75-.11-.22.53V3.3L21,2.13l1.17-.42,1.6.21.43,1.17.42-.42.11-.75h8.85l.21,1.17.64-.21.75-1,.64-.21.53.21.21.43,1.82-.54.53.11.42.43.75-.11.43-.53,1,.42,1-.42,2.45.42,1-.42,4.69.42,1-.42,1.17-.11L57.78,2l.64-.11.42.85.43-.42.11-.64,5,.21,1.7-.21.64.85L67.8,2h1.28l.53.32,1.06-.54.75-.1,1.49,1.17.75,1.06.11,1.18-.22.53.64,1.07L73.87,8.1l.32,1.28-.32,1.28.54,3.09L74,15l.21,2.77-.64,1.71L74,20.79l-.11.53-.74,1L72,22.81l-1.38.11-1.28-.32-.85.64L67.05,23l-3.73.21-1-.43L58,23.45,57,23l-.75.21-1.06-.64H52.55l-2.45.64-1-.43L48.72,24l-.54.43v2l-.42.53.32,1.17-.11.53-.43.43.32.53.22,1.18-.32,3.83.32,1.18.1,1.7-.42,1.07.42,4-.64,1.6.32,3.94-.64,1.17.86,1.5.1,1.28-.64,1,.64.85-.32.53-.1,1.07L48,56.82,47.54,58l.64.85-.32,1.07.22,3.94-.54,1.07.75.85.11.53-.22.75-.42.43.64,3L48,72.06l.21,1-.64,2.13.43,1,.11,3.73.21.64-.11,1.07-.42.53.1.75-.32,1.38H47L45.62,85.6,45,85.28l-.31-.43L44,85.6l-1.28-.22-.86.22-1-.64-2.23.74-2.88-.1L35,84l-.53.21v1.17l-.64-.21-1,.85-1.6-.21-.32-.43v-.74l-.53.21-.75.75-1.17-.43-1.06-.74-.75-1-.75-2.56v-.85l.32-.54.54-.21-.86-.64v-1.6l.43-1.17L26,65.66l-.11-2.55.64-1-.64-1v-9l.43-1.06L25.9,50l.22-.85.42-.53-.32-1.28V46.05l.32-1.17L26.12,44,26.33,40,27,38.91l-.64-2.24-.43-.43.22-2.45.21-.53L26,32.73l-.11-1.28.32-2.88-.32-3.31.22-.53L24.2,23.24l.53-.64-.43-.11-1.06.75-2.45-.32-3.52.21L14,22.81l-.21-1-1,.86-1.7.42-1.28-.32.42-1.7.32-.43L10,19.61v-1.7l-.43.21v.53H9.17l-.75,1,.64.43h.75v.75l-.32.42L9,21.43,7.25,22.81l-.32-.32L6.5,21.43l-.64.42.43.75-.75-.11L3.73,23l-.53-.32-.32-.54-1.17.64V22L.32,20.68l1.07.21-.43-2-.75-.75L.32,14.6.53,14,1,13.54.53,13H0l.32-1.27V9L0,6.5l.32-.42H.75L.21,4.69l1.28-.43.11-.74L1.39,3l.42-.21L2.35,3l.53-.85,1.17-.21V4.26l.64-.42.64-1.92L8,2l.85,1,2.56-1.27L13.33,2ZM4.26,21l1.07-1.92L4.69,19l-.53.32-.32.64v.64Zm0-10.34.22.43.53.1.32-.42-.53-.22Zm.22-2.24.85.43.21-.64-.32-.43H4.69Zm5.75.64L10,8.42,9.38,8.1H8.63L9,8.85l.53.1ZM9.06,13h1l-.11-.74-.53-.32-.21.43Zm1.39-3.62.74-.11-.64-.42Zm3.73-1.17-.54.1-.1.54.74-.22V8L14,8.1Zm.1,13.86.86.1.1-.74-.32-.64-.64-.32-.32.21.32.64Zm.86-4.37-.32-.64-.64-.32v.64l.53.42ZM14.28,4.48l1.07.42-.11-.74-.74-.22Zm0,2,.54.32h.74l-.21-.64h-.64Zm0,4.16.43,1,1.17-.85-.21-1.18L15,9.7l-.43.43Zm.43,5.12.43-.43V14l.21-.64-.85-.1.1.53-.32,1.39Zm2.77-9v.43l.64.21-.21-.74Zm1.6,4.8L19.61,13,20,14.92l.75-.85.1-.64-.21-1.28-.43-.53-.53-.21Zm0,5.44.21.74.54.32.64-.85-.54-.21ZM20,6.5l.21-1.17L20,4.69l-.43-.21L19.29,5v.64l.32.53ZM19.4,19.29l.53-.21.11-.64-.53.21Zm3.84-9.48L24,10l1.59,1-.42.43h-.64L24.2,13l.85-.1,1-.75L26.12,11,24.2,8.85l.42-.54.11-.85-.64.21-.64.86Zm.53,4.69v1.81l.43.43-.43.42-.1.54.21.53-.11.53-.42.53.85.54.53-.32.43-1.18-.43-1.27,1.17-1L25.16,15l-.22-.64-.53.11ZM24,3.73l.21.53h1l-.43-.53Zm.21,17.91.53-.11.21-.42v-.64l-.64.21-.31.43ZM25.8,7.25V5.54h-.64l-.64-.42-.32.53.1.53,1,.86Zm.53,7.14H27V14ZM27,28.14l.43.21.32-.42-.43-.43ZM29.31,9.27l-.95.11.32.53.21,1.18-.21,2.13.53.32,1.06-.22V11l.22-.53H29.1l.21-.86,1,.43.11-1.28L31,7.25l-.43-.43-.32-1.28h-.74l-.64,2L29,8.85ZM29.1,3l-.21.54,1,.42h.64V3l-.86-.1Zm.53,16.85h-.74l.21.74.53.32.64-1.06-.42-.32Zm-.74,4.79h.53l.43-.64-.64-.1Zm.64-1.17.1-.74-.53-.54-.1.75ZM29.1,36.78l.32.42.53.22.54-.22-.32-.53-.64-.21Zm0,42.32.75.21v-.85l-.43.21Zm.43-63h.64l.85.64.43-1.18L31,15.14l-.32.74-.21-.42L30,15.14h-.64v.53Zm-.22,19.72.64-.11.11-.75-.64.22Zm.22,45.41.32,1.06h.74l.54-.21.32-.43-.32-.53-1-.11Zm.1-11,.32.53,1.5,1.07.21-.75-.43-.64-.32.21L30.7,70h-.64ZM30.7,18.12l.11-.53-1-.64.32.75Zm-.64,55.65.53.1.32-.53-.53.21Zm.43-27,.53-.22v-.74h-.53l-.22.53Zm0,2,.21,1,.64-.43-.11-.74Zm.21-34.64.53-.22v-.42l-.53-.22Zm1,6.07.64.11.32-.75-.64.22Zm1.6-13-.43,1,.54.1L35,7.67l.22-2.34-.64.21-1.07.75L34,7.67l-.42-.21ZM34.43,17H33.15l-.32.53.75-.1.64.32-.11,1.49.22.53L35,20l-.32-2.56Zm-1-11.62L33.9,5l-.43-.32ZM35.6,17.27l-.21-.75-.64-.42.75-.86.1-.85L35,14.07l-.21-.43-.11-1.49.32-.21.86.85-.64.43H36l.11-.64L35.6,11.3v-.64l.54-.43-.43-.42L35.6,8.42,35,8.31l-.74.32L34.43,10l-.32,1.07-.64.85.75,2.56-.64.53v.53h.53l.53,1.28.43.43ZM33.47,23l.86-.11.31-.43.75.32v-1H34l-.1.75Zm1.17,28.56-1.17.32.53.22-.53,1.17.32.53.64.32.85-.74.54-1.82-.64-.1L35,51.17l.22-.54.85-.85-1.28.43-.53,1Zm-1.17,14h.32l.21-.43-.53-.21ZM35,44.88l-.42-1.07-1-.53L34,44.34l.43.32ZM33.79,28.14l.43,1v.64l.64-.21,1.17.53-.53-1.81.32-.75h-.64l-.75.32Zm0,5.12h.75l-.11-.64h-.64Zm0,5.86.32.43,1.07-.64V36.78h-1l-.22.74.11,1.17ZM34,25.37l1.39-.21v-1H34.33l-.22.53Zm1,23,.22-.64-.43-.54L34,47l.33,1.17ZM34,61.83h.64l-.21-.64Zm.43,14.49h1.92l-.11-.64-.42-.32L34,74.94v.85Zm-.21-2.77,1.28.32.64-.1L36,73l-1-.64.11-.53-.75.1-.32.43v.53Zm.21-13.75.75-.11L36,58.63l-.53-.32-.86-1.6-.42-.43.21.54-.1,2.45ZM35,77.5l-.74-.22.32.64ZM35,81l.43-1.49-.75.11-.42.64.11.53ZM34.43,30.7v.53l.53.22.64-.22.11.75.64.32v-.85l-.53-.32-.22-.64h-.74Zm.75,11.94.21-.53L35,41.89ZM35,78.35l.86.32.32-.32-.54-.43ZM36,54.68l-.64-.21.21.43ZM36.35,26v-.53L36,25.16l-.21.53Zm3,39.33.11.54.64.1.43.32-1,.75-.64.21V68l-.21.43-.32-.54-.32,1.39.1.64.43.53.21-.53-.1-.75.21-.53.21.53.43.32v-.64l.21-.42.11.85.21-.53.64-.32-.11-.86.32-2-.21-.43-.21.53-.54-.1Zm-.95-35.07v.64l.32.43,1.06.32.11.64.85.53.11-1.38-.32-.54-.64.32.42-1.92-.42-1.06-.54-.32.22,1.28-.22.64-.42.42Zm.21,32.09.21-.53.53-.22-.95-.21V62Zm1.17-49.14-.85.32-.43,1.17.22.43.1-.75.32-.43.75.22.1,1.38.32.54.64-.32-.53-2.56.32-1.6-.64-.11-.32.32-.21.64Zm-.85-2.56.64-.21-.43-1.39,1.17-.64.22.43.42.21-.21-.64-1.81-.53-.32,2Zm-.32,9.17,3.84,1.06.42-1.06.54.1.32.32-.32.54.32.64.74-1.28v-.64h-.53l-.43-.43-2,.75-1.39-.11-.53-.21.32-.43-.11-.64-.53-.53-.53-.21v1.38Zm1.28,54.9h-.43l-.53.42.21,1.17-.53.22V79.1l1,.42.21-.64-.1-2.13.21-.53.64-.32-.43-.54v-.42l1.07-1.6-.75-.43-.11-.74-.74-.32-.11.64.43,1.6Zm-1-40.51.64.21.53,1.17.85-.74-1.17-1.28-.64-.11Zm.21,48.39.11,1.5-.32.53.64-.21.32-.43V82.4Zm1-24.41.64-.53-.43-.32-1.17-.11.32.64Zm-.75-34.64.22.85.42.53h.75v-.85l-.21-.64-.75-.11Zm0,14.18.22.53.64-.21.32-.54-.64.11Zm0,4.15.22.75.53-.21v-.75Zm.22,22.28.74.32.22-1-.64.22Zm.21-56.71,1-.21-.21-.53-.43-.22-.21.32Zm.53,63-.53-.21.21.42Zm-.42-29.53.42-.32-.42-.32ZM40.08,49h.85l-.21-.54h-.43Zm.21-2.46h.43v-.32h-.43Zm.64,23.24.32-.32-.53-.21Zm.32-18.23.22-.64h-.64Zm0,32.84-.32-.86v.64Zm.64-60.87v.64l.75-.11.43-.32-.54-.43Zm.75-9.81.32-.53v-.64l-.64-.21-.21.53.1.53Zm-.53,3.95.42-.32-.42-.32Zm1.38,43.91.64-.1.32-.54-.21-.53h-.53l-.32.43ZM44.24,38l-.11.74-.64,1.07v.75l.75-1,.64-1.81Zm.43,10.45-.64.21-.54,1.17,1-.21v-.64l.53-.75-.1-.85-.43-.53-.21.53.1.64Zm-.43,3.73v-.86L44,50.74l-.43.53-.11.64Zm-.53-10.45.42.11.32-.32-.64-.11-.1-.43Zm.1-14,.11.63.53.22.11-.64-.32-.43Zm.22-13,.85-.21.32,1.38-1,.43v.75l.43,1.06.31.32.32-1.06.32-.43.64.32h.54V15.78l-1.39-1.39L45,14.18l-.1-.64-.43-.32-.42.42-.11.43Zm.21,9.7.53-.21.21-.64.54.1.42-.42.64-.21-.32-.54-1-.42.11-.64h-.53L44,23.88ZM44,26.12l.42.21h1.17l.11-.53.53-.22-.42-1H45.2l-.22.64-.53.32ZM45,57.88,44,57.67l.1.64.64.11ZM44.24,6.72v3.73l1.06-.22.75-1L45.52,9,45,8.1l-.1-.64.74-1-.42-.42-.43.32Zm0,24.41,1,.32.21-1-.53-.22Zm.21,24.51.53-.53-.74.11Zm.43,23.24h.74L45.2,77.6V77l-.43.43V78Zm0-59,1.17-.11,1-.43-.11-.74-.32-.43h-1l-.74,1.07Zm0,23,.53-.32-.53-.42Zm0,10.45.42-.11.11-.64-.43.22ZM45,40.51h.64V40H45Zm.22-10.77.74-.21.11-.64-.85-.22Zm0,31,.85-.21-.43-.32Zm0,1.39h.42v-.32H45.2Zm.21-50,.32,1.17-.11.64,1.28.11.32.32.22-.64-.11-1.06.32-.43-.53.21-1.07-.1Zm.64,47.44-.21-.53-.43.21Zm0-32.09.11-.53.42.32-.21-.75h-.53v.64Zm.21-16.31.54-.42h-.43Zm.54,46.05L47,57l-.43-.32ZM47,9.06l.75.75h.64l-.32-.64-.64-.43Zm0,12.15,1.17.64L48.4,21l-.86-.11Zm.21,38.06.22-.85H47Zm1-43.92h1.18l-.75-.64-.21-.53-.11.42Zm1.39,1.92.1-.64-.53-.53L49,17.16Zm.21-5.33.11-.64L49.36,11l-.11.64Zm0,2h.32v-.42h-.32Zm1.39-2.34.74-.21-.21-.54-.75-.1Zm4.47,3.52.32-.43.54-.21L56.28,14l-1.17-.42.32,1.17ZM56.28,4.9l.22-.21-.43-.43Zm-.21,3.31h.43l-.43-.54Zm8.64,7.14.53.21.21.43.64.11-.64-1.6.53-.22.32-.53-.63.21-.64.86Zm1.17-7.14.21-.75h-.64l.11.53Zm0,3.94h.64l-.22-.42-.42-.11Zm3.94,2.35,1-.32L70,13.54l-.32.53Zm.64,2.56H71l-.54-.54Zm.75,5.11.74-.1-.21-.54-.74-.1Z"/><path class="cls-1" d="M110.44,34.11l5.54.43h2.35l1-.22.64,1.18V34.32h.64l.74.54.32-.22.22-.53,1.91.53.22.64.53-.32.32.32.32-1.17.75.21.53.43L128,34l5.86.32.75-.21-.22,1.17.54-.1.42-1.6.64-.85.11-2.46-.21-2.66.1-2.67.22-.64.74-.21-.32-.43H136l.22-5-.32-5.33.53-1.06-.85-1L136,7.57l.43-1.17-.21-.75V4.37l.42-1,.86-.64L139.75,2l5.33.21,1.18-.43,1.28-.1,3.94.32,2-.43.54.32.85,1,.85-.64,1,.53.75,1L158,4.9V6.82L157.24,8l.85.11-.32,1.39.21,1.92-.32,1.17-.42.53.1.53.75.75-.32.64v.64l.53,1.17-1.17,3.09.21.64.54.32-.22.75-.53.43.21.64.54.21-.22.74.11.75.53.43-1,3.3-.42.43,1.17,1.17-.21.43-.43.21.21.75v4.79l-.64.22-.85.74-.64.22.32.53.21,1.17,1.28-1.06.54.1-.11.64-.43.21h-.64l.22.64,1.17.32-.53,3.52v1.17l.53,1-1,1.18.32.42.64.22-.64,1.49v1.28l-.32-.43-.43.43.54,1.6-.54.32.22.42h1.17L158,53.62l-.42,1.06-.43.54.43,1.28-.43.42.85.75.11.64-1.39.43.54.42h.64l.21.64-.21,2.77.21.32-.64,1.18.43,1.17.1,1.38-.32,1.92.32.75v1.28l-.74,1.17.64-.21-.22,9.38.64,1.38-.32.43-.1,1.17-3.2,2-1.07-.32L151,86l-.43-.42-2.66-.85-1.18,1-.42-.21h-1.18v-.74l-2.77,1.17h-1.6l-.32-.54L139.22,85l-1.39-.21-1.17-.54-.42-.53-.32-1.07-.11-2.87.64-2.35L135.81,76l.43-2.34-.64-1,.42-1.28,1-1.71-1-.95.32-2.67.43-.53v-.32l-1.17-1.17.53-1.18V60.33l.32-1.81-.43-.64-.1-.64.32-.64-.32-.64-.86-.64-2.45-.64-.53-.32-1,.64-1.07-.64-1.38.22-.54.42-1.81-.42-4.69.42-.32-.85-1.06.64-1.07-.21h-3.84l-.53-.22-1.6.86-.53-.32L112,54l-.64.32-.53-.32-.43-.63-.53.1-.22.43v.64l-1.28.53-.53-.11-.21-.64-4,.43-.64,1-.32,1.07-.1,5.33-.32,1.92.32.64v2.23l.32.43-.43,1.17v2.35l-.53.21,1,2-.32,1.06-.22,2.45.11,2.78.43,1-.32,1.91.1.64-1,.54v1.28l-.74.74-.64.21-1.81-.42L95.73,86l-1.39-.1-1.6-.64-1.17.64L91,85.49l-1.71-.64L89,85.92l-2.66-.11-1-.32-.32-.43-.43.43-.53.11-2.56-.75L81,83.47V81.55l-.53-1.17.31-.54.11-1.6-.21-.64.64-.53-.64-1.28.85-1.17-.21-.32h-.43V72.06l.75-1-.43-.43-.74-.32.1-.64.75-.74L81,67.58l-.11-3.19,1-.75L81.55,63h-.64l-.11-1.39L81,61l.53-.32-.43-1.17.22-.53-.54-1.39.32-3.62-.42-2.45.1-2.14.32-.63-.21-1.18.21-.64-.42-1.17.21-1.17-.11-3.41.32-2.46L80.59,36V34.54l.75-1.6-.64-1.17L81,29.21V19l-.11-.64.64-1.17-.85-1.38.42-1.28.43-.43-.85-.64.42-1.38-.32-.75L80.7,10l.42-4-.21-1.6.75-1.28,1.06-.85,1.18.11,2.34-.54,4.91.32L93.7,2l.22.85.53-.21.32-.43L95.3,2,99,2.24l.75.74.64-.31h.75l.21.53v.85l1.17.11.21,1.28h-.64L101.59,5l1,1.92V8.1L102,10.55l.32,1.18-.75.32.21.74-.1.53-.53.32.85.86.64,1.28.21,1.92-.43,1.17-.42.53.42,1.81.32.54-.21.53.11,4.26-.32,1.07.42.85L102.44,30l.43,2.46,1.49,1.81.54.32-1,1,1,1.38-.32.43v.75l.32.42.64-.21-.43-3.2.64-.11,1.38-.85.64.11.86.53.64.11.21,2.24.85-.64-.21-.64-.32-.11.32-1.07Zm-26,38.16.43,2.24-.86.75-.32,1.38.64.54H85l.64-.32-.32-1.18.43-2.34-.21-1.28-.64.11Zm-.53-24h.32v-.43H83.9Zm.21,34.22.32.85.64-1.07-.53-.1Zm.11-29.1.32.53.53.21.11-.53-.32-.43Zm0,27.71L85,81l.32-.63L84.86,80l-.43.53Zm.42-61.93.11.64-.32,1.28.43.42V22L86,21.75l.21-.43-.74-.21-.43-.54.43-.42-.11-.75L85.07,19Zm0,37.52.64-.32L84.86,56l-.32.43Zm0,14,.64-.21.54.11-.22-.86-.74-.31-.32.63Zm0-60,.22.85.74-.21-.1-.64-.32-.21Zm0,41.36h.64l-.64-.43Zm.43,16,.32-.43.11-.64-.64.11-.22.64Zm-.21-53.73.64-.21.1-.64-.53.21Zm.64,46.8.32-.43V60l-1-.85v1.39Zm-.64.75.74-.32-.53-.11ZM85.07,66l.75-1v-.74l-.54-.21L85,64.6l-.1.74Zm.75,12.26-.54-.42-.21.85Zm-.11-61.93,1-.64-1.39.11ZM86,76.64l.74-.42v-.54l-.31-.42-.33.64Zm.64,8.42.53-.21.21-.53h-.64ZM88.05,53l.32-.43-.21-.74-.11.64Zm.32-44.24.22.64-.22,1.81.43.54-.53.1-.11.43.21.64,1,.53.75-1.17.11-.75-.64-.64.42-.53,1-3-2,1.17Zm-.21,13.54.85-.21-.1-.54-.54-.21-.1.43ZM89,62l-.64,2,.75.1.64,1.07-.64.21-.32.32v2l1.07.32h.74l.32-1.28-.53-.11-.21-.53.53-.43-.32-1.49V62.89L90,63l-.21-.75h1.17l-.53-1.6.43-.42-.64-.54-.22.75h-.74L89,59.8l-.64-.11-.1.54.53,1.28ZM88.8,50.85l.75.74.64.22.32-1.5.42-.42-.42-.43-.11-.53.21-2.13-.21-.64-1.71.53-.32.43.75.1.53.32.32.54-.64.32L89,49l1.39,1.17-.53.32h-.54Zm-.43,6.29.54,1.28.85.85.43-.75-.64-.42.42-.43.75.11v-.86l-.75.22-.64-.22.22-1H89v.75Zm.22-18.34.74-.11.64-.42.32-.53L90,37.31l-1.06.85Zm.74,31.13-.1-.64L88.8,69l-.11,1.38.54.54-.54.21-.1.53.21.43.32-.43,1.28.11.21-2.34-1.06-.64v.64ZM89,75.26l.32,1-.74.85L89,78.24l.54,3.31.53.1,1.07-.53-.22-.53V79.2l-.32-1.06L90.19,78l.32-.64V75.58l.21-1.28L90,74.19l-.64-.42L89,73.23l-.1.54.42,1Zm.22-58.42.1-.85-.53-.21-.11.64Zm-.43-2,.53.85,1.07-.85.21-.75H89.33l-.21.43Zm.43,9.48.1-.85-.42.32Zm0-5.54H90.4l-.21-.53-.86-.64-.21.53Zm.1,59.59.64.21-.1.75-.54.32Zm.43-22.6.53-.32.32-1.28.54.43.1-.85-.85-1.5h-.85v2.88Zm.64-11.94.21-.53-.32-.43-.53-.1.21.64Zm-.21-2,.21-.22L90,41.25Zm3.94,29.95.11-.75-.32-.53-.43-.11-.32.54.64.21.11.53-.22.64,1,.43-.32.43-.64.1.22.64-.11,1.71.64,1.06.64-.21.11-.64-.54-1.92.43-.42.43-1.5-.64-.1-.22-.54.86-1.38h-.86l-.21,1.28Zm-.85-60.87.21.32v.54l.32.1.75,1.07.53-.43-.43-.53-.32-1.39-.64.11Zm0,30.92.74-.22,1.28-1.38-1-.22-.74,1.18Zm0,13.75.42,1.17,1.82-1-1.07-1-.21.53-.54.11Zm.21,2v.64l.75,1,1.28.53-.22-1.81.22-.53-1.39.21ZM93.7,65l-.21,1.18.85.74,1-1.49L94.77,65l.11-.74-.43-.43-.11.54-.42.63Zm0-17.9.64.53-.32.64.64,1.81-.42,1-.11,1.39.64.1,1-.32-.85-1,.85-1.06-.64-1.07-.53-2.34-.11-1.5.53.11.43-.43.32-1.38-.64-.43-1.17,3.31Zm.64,13.53.11-.53-.53-.43-.22.64ZM93.92,9.27l1,.43-.11-.53L94.24,9Zm0,53.2.21.53.32-.11.85,1.18.43-1.39L94.45,62Zm.21-33.26,1.17.53v-1l-1-.21L94,29ZM95.3,39l-.21-.63-.75-.75-.32.53.22.64.42.32ZM94.13,14.28l.53.32.64-.1.43-.43-1.28-.21Zm0,5.44.53.21.43-.42-.53-.11Zm0,34.64h.64l.75-.53-.32-.42-.64-.11-.43.32Zm.75-23.55v-.54L94.45,30v.64Zm0,48.82v-.85l-.43.42Zm-.22-17.91h1.07L95.52,61l-.64-.32Zm.22,7h.64l.21-.75h-.64l-.43.32ZM95.09,16h.43v-.32h-.43Zm.21,26.54.43.64.32-.21v-.64L95.84,42Zm.54,10.66h.85l-.22-.74L96.05,52l-.32.64Zm.21,18.34h.64l-.43-.64.43-.22h-.64Zm2-19.94.54.22.1-.64-.32-.75.54-.21.53-1,1.07.74.42-.32-.32-.53V48.5l.32-.64-1-.53-.42.11-.75.74-.75,2.67Zm.32-9.8.32.53-.1,1.49L99.25,45v1.71l.74-.11.64.32h.54l-.32-.64-1.28-.74L100,45l-.21-1.38.85-.64L100,41.79V41l-1.28.32ZM99,62.68v-.75l.43-.42.11-.64-1-.22-.22,1.18.22.64ZM99,19h.43l-.32-.42-.32.21Zm-.21,64.39v.43l1,.42.43-.32v-.74h-.86Zm.21-66,.64-.22.32-.53-.74-.21-.32.53Zm0-9.6v.75l1.39-.32.53.1.22-.53L101,7.36l-.53.31h-.64Zm0,28.89v.64l.64.75.11.63,1.07-.21-.22-.74.54-1.28-1.6.42Zm.22-7.89.32.64.64-.21v-.54l-.43-.21Zm0,29.1.53-.32.32-1.17L100,54.15,99.25,54Zm1-42.85-.22-1h-.53l.21.64Zm-.75,36.46.53.32.22.64-.54.53-.1.43h.74l.32-.43.22-1.17.32-.54-.32-.42-.54-.11-.53.21Zm.11,27.93h.64l-.11-.54-.53-.32Zm.21-47.12.53-.32-.53-.43Zm0,27,.53.21.54-.21-.11-.64-.43-.21-.42.21Zm0,2,.43-.32-.43-.32Zm0,5.87h.43v-.32h-.43Zm.85-27,.22-.64-.43-.32v.64Zm.75-20h-.53l.21.32Zm2,29.74.11-.75-.32-.21v.53Zm.11-9.7.64-1.18-.64-.32-.21.32v.75Zm-.11,1.38.54-.21.21-.53-.75-.22Zm0,10,.75.43.43-.75-.75-.1Zm.11-6.82.53.43v.74l-.32.54.54.42.32,1.39.53-.32.21-.53-.74-1.71.74-.21V44.24l.75-2.24-.53-.43-.54.11-.64,1.07-.53,1.49Zm.64,5.12.53.21.43-.21.21-.64-.64-.11-.32.21Zm.43-11.09.1.85.86,1,.21-1.6-.53-.32Zm4.69.21-.43-.53-.32,2.13L110,40.4l.64-2.56-.1-.53-.54-.43v.75l-.42,1Zm-.64,6.08,1.06-.43.54.11v-.85l-1.28.53Zm.64,2,.53-.43-.11-.75h-.85l-.11.75Zm-.43-5.33.75,1.06,1.6.32-1.92-1.81Zm1,7.67h.85l-.42-.53Zm1.28-5.12.75.22L111.5,44Zm2.56-3.09h.53l1.17-.85.43-.64.11-.64-.32-.43-1.71,1.92Zm.32,3.31.42-1-.64-.43-.1,1.07Zm.85,1.92v-.54H114l.21.32Zm-.43-9.06.54-1.07.1-.64-.42-.43-.54,1.18v.74Zm-.21,13,.75.21.21-1.38-.64.1-.11.54Zm.64-1.38V48.5l.64-.21.21-.64-.1-.64-.43-.11-.53.86-.11.64Zm.75-5.87-.11-.64L114.6,42l.1.64L115,43Zm1,1.39.53-.32-.11-.43-.32.21Zm2.23,1.38.32.43.43,1.92.53.21V46.16l.86.32.21-1.18-1.39-.53-.53.75Zm.11-5.75.75.21.53-.11.32-.53V39l-.53-.32h-.86Zm.43,3.62.42-.21V43l-.85.21.21.54Zm.21-6.93.11.75.64.21.21-.64-.32-.53Zm0,13,.53.32-.1-.75Zm.43,3.73.32-1.17h-.75v.74Zm.32-11.19v-.54l-.32-.32-.22.54Zm3.62.53.21-.64h.64l.43-.32-.43-.21h-.64l-.42.21v.43Zm0,10.23h.53v-.53l-.42-.21Zm.53-12.79.54.21.64-.21-.11-1.17L125,39l-.32.64Zm.43,6.29,1-.32-.32-1.17-.64-.86-.21,1.28Zm.32,3.52.21-.64-.1-.43-.64-.21.1,1.17ZM125,43.92l.64-.21.32-.54-.85-.42-.11.64ZM128.13,54h.64l-.21-.63Zm1.18-10.87-.54.22.32.32Zm.42-1,.54-1.17-.11-.53-.43-.32-.53,1.06.21.54Zm.22,3.95.21-.54-.11-1.38-.32-.32-.42,1.28.1.64Zm-.64,3.3.53.11.11,1L129.73,52l.11.75.32.42.32-.53-.32-1.81.43-2.45-.32-.32-.86.74Zm1.81-5.65V43l-.53.21v.43ZM133.46,41l1,4.48h-.74v.85l-.22.53.22.64.1-.53.11.64h1.49l-1.06,1.28-.22.53,1.28,1.81V50l.43-.32-.43-1.38.54.21.53-.21-.11-.75-.53-.32-.75-.1-.42-1.07.42-.32.22,1.17.42-.32.11-.64-.32-.53.32-.64-1-1,.32-1.28.11-1.49-.75-.21L134,41Zm1-1.6v-.75h-.53l.21.43Zm.43-.75V39l.53-.32-.1-.42Zm0,16.31.53-.1.22-.32-.75-.43Zm1.92,17.06.43-.21-.43-.32Zm2.56-32.62.21-.21.43,1.38-.43.32H139l-.43-.32-.64,2.14.53.53.43,1.28.43.53,1-1.38.1-.54-.21-.64-1.39-.1v-.64l1.6-.22v.54l.32.32V38.69l-.64-.1-.32-.53.43-.32.32-1.28-.53-.22-.43.54-.32,1.91Zm-1,8.85.1-.64.32-.32-.63-.21-.11.74Zm0-2.13,1-.43h-.75Zm0,27.93.64.21.64,1,.53.21-.21-.64.21-1.92h-1l-.43.64Zm.21-38.38,1.07-.53.32-.43-1.39-.21Zm1.6,11.94-.64.85-.21,1.39-.54.1-.21.43,1.28.11.85-.32-.32-.64.54-1.81Zm-1.6,6.71,1.28.86h.64l-.85-2,.32-1.92-1.18-.42v3Zm0,7.36v1.17h.53l.11.54.64-.11.43-.53.1-.75h-.74l-.43-.75Zm1-3.3-.75.74.43.22.53-.11.43-.75Zm.64-.32-.21-.64V56.18l-.64-.86-.32.54.21,1.49.43.53Zm-1-24.52,1,.11.21-.54-.32-.64-.53-.32-.21.64ZM140,14.82v-.54l-.64.11Zm-.64,54.89.21.75.64.21.53-.1-.1-.75-.64-.21Zm.85-66.3L140,3l-.43-.1.11.42Zm-.64,43.49.75-.21.64-1.17-1.18.74Zm.21,18.87.11.75.32.42.75-.32-.11-.85-.43-.32ZM140,80.38l.1.63.32.32.54-.74-.54-.43Zm1-66.31v-.64h-.54l.11.53Zm.21,39.12.43-.32.1-1.17-.74-1.81-.22,2,.11.75Zm-.21,14.61h.42v-.86h-.42Zm.64-13,.32-.43-.32-.74-.32.64ZM145.62,43l-.11-2.67-.64-.85.53-.11.43-1.7.32-.32-.53-.21-.75-1-.21-.64.32-.32.32-1.07v-.74l-.64.1-.32-.32-.22-.64L143.8,35l.11.54.53.42-1,.75-.21,3.3.21,1.28.22-.85L144,41l.32-.43.32.43v.53h-.75l.64,1.18v.42l-.43.64.64.21,1.5,1.28.21-.64-.64-1.27.53-.11.11-.53H146ZM143.7,63.21l.1-.53h-.53ZM144.44,29v-.53l-.74.11.32.32Zm-.53,19.51.53-.64,1.82.22.42-.43-.53-.53-1.92-1-.32-.43.43-.21.32.32.64-.32-.86-.54h-.74l.1,3Zm0,1.6-.21.43v.74l.64-.42,1.28.21-.11-1-.43-.11-.64.22Zm.43,3.73.32,1.17-.11,1.18-.85,3.09.53.42v1.6l-.32.54.53.32.86.1V58.52l.21-1.06.32-.54-.53-.42.32-.75v-.53l-.43-.32V53.41l.43-.64-.75-1-.43.42-.1.75ZM144.12,63l-.21,1.71.21.53h.75L146,62.68l-.74.11-.54.32Zm0-43.81.64-.11.86-1-.11-.53-1.28,1Zm0,1.38.54,1v.75l.64-.32v-.53l-.43-1.18Zm.22-4.79.53.32.64-.32-.11-.54-.32-.32-.64-.1v.53Zm.74,21.32-.21.32.64.42-.64.22-.53-.22v-.53Zm0,32.3-.32,2.13.32.64.54.32.21-2.46-.32-1.27-.43-.43-.64-.21-.1.64.32.32Zm-.64-57.89.54.22.53-1,.11-.64L145,9.91l-.54.22.32.42v.54Zm0,11.94h.43v-.32h-.43Zm.22,9.06.64-.21.53-.53-.21-.54-1-.42L144.44,32Zm.21,44.88-.43-.75.11.54Zm.21,3.73v-.74l-.42-.43-.11.74Zm-.21-14,.53-.11.11-.64h-.64Zm.43,8.1.42-.64.11-.75-.21-.64h-.75V75Zm1-46.05-.22-.75-.53-.21-.21.53.32.32Zm-.43-15.78.21-.74-.53-.22.11.53ZM146,68.12l.43-.32-.21-.43ZM148.17,28V27.4l-.31-.32v.64ZM149,64.81l.74.11.86.85-.64.64-.86-.75-.53-.21-.1.64L149,68v.75l-.64.42.21.32-.43.64,1.07,1-.43.32-.21.53.64.75-.43.43.64,1.06.32,1v1.92l-.53.53.32.64.64.32.53-1.06V75l-.42-.21-.11-1.17-.64.21.53-1.17v-.64l-.53-1.17.43-.32.53-1.07-.11-1.17L150,67.8l.42-.64.32-1.28-.53-1.17-.64-.32-.11-.54.32-.64-.1-.42-.43-.32-.32.53-.11,1.07Zm.53-27.18-.53,1v.64l-.75.32.11.64.85-.43.75.11.21-.64.53-.22v-.74l-.74-.85.42-.75.32.43.32-.43L151,36l-.75-1-.64-.21-.21,2.56ZM148.39,7.57l.53.1.32.54.75.32V7.36h-.75l-.64-.75-.1.43Zm1.06,8.85-.32.64-.53-.32-.21.64,1.38.1.43.32.21-1.28L150,16.2Zm-1.06,16.31.32.53.1,1.49,1.82-2.45-1.82.11Zm.42,24.41-.21.64.53-.43.11-.75-.85-.21.11.53Zm.75,4.9-.21-.64-.32-.32-.64-.21.11.85.53.43Zm0-36-.21-.53h-.75l.32.74Zm0,3-.75.75.54-.11.42.43.64.11.32-.64-.53-2.35h-.64l-.32.64.11.53Zm.21,21.86-1-.22v.64L150,52l.74-.53-.42-1.07.1-.75-.85.22.43.42Zm.64-37.74h-1.17l-.21.53Zm-.21,30.81-.43-.53-.74-.22v.64l.53.11ZM149,48.08l.64-.11.32-.32-.75-.32Zm.21-37.21,1,.86.21-.64-.21-.75-.43-.43-.42.32Zm.21,47.87.11.64-.32,1.06.75.11.74.74-.32-.64.43-1.91-.21-.64-.64.32Zm.54-39v.75l-.54,1.06h1l.22-2Zm-.54,22.81,1.18-.32.32-.42h-.64l-.54-1-.32.32Zm0,13,.75.21.21-.53-.42-.43-.32.43Zm1.28-.75-.1-.85-.86-1-.1.75.64.74Zm-.32,2.35.22-.75-.54.21Zm-.21-34.65h.64l-.21-.53Zm.21,41.15.54-.75-.54-.21-.21.53Zm1.92-14.18.75-.11-.11-.42Zm1,10.23h.43V59h-.43ZM154.57,54l.11-1.81-.75-.64.32.64v1.39Zm0,15.14.43.32.53-.1-.43-.54Zm1-38.37-.85-.64v.64l.42.32.22-.32Zm-.64-1.18h.64l-.21-.53-.43-.32Zm1,54.9.43-.1.21-.54-.43.22Z"/><path class="cls-1" d="M170,20.47l1-1.5-1-.85.32-1.28L170,12.79l.64-2.45V9.27l-.42-2.55V5.33l.32-1.28,1.27-2h2.67l.64.21L174,3.62l.21.54,1-.75L175.58,2l8.63-.22,1,.64,1.28-.21,1-.64,1.17.21h4.26l.64,1L195.3,1.6l.53.21,2.66.11,2.78-.21,1.27.1,1.18.75.74.21,2.46-.85h6.28l2.56.53-.21.43.21.53h-.85l.43,1,1.38-1.7.22-.64.64-.11.74.32.53-.32,1.71.21.64-.1-.32.53h.75l2.13-1.17,1.17.32,2,.1,1.17.64,1.28-.53,1.38-.11,2.35,1.07,1.28,1.38.21.54L234.42,6l.42,1.17-.53,1.92.11.64-.75,1.39.11.53.74.64v4.16L235,17.8l-.64,2.56L233,22.71l-2.77.32-.53-.32-.54.32-1.81.31-3.94-.21-1.28.32L221,23.13l-2.14.11-1.91-.43-.43-.53-.75,1.17-1.17-.64-2,.22-.53-.22-.42-.53-.43.43H210l-1-.64-.54.21-.85.75-2.34-.11.21-1.6-.53.32-.22.64.11.64-1.39-.11-1.38.64-1.6-.85v-.53h-.75l-.74.74h-.64l-.54-.32-1.06.75-1.39-.75-.53.75-.85.1-1.07.54L191.67,26l.32,2.77-.11,2.88-.21.64,1.71,1.92,1.49,1.28L196,34.43l.85.11.54.32,1.17-.54h.75l.42.32,1-.32.64.32,1-.32,1.39.22,1.28-.11.53-.32.53.32,1.18.11.95.53,1.82-.53.64.1.32.43.85-.64.74.21,2.56-.32,1.18.11.21.43,1.17-.22h3l1.17-.32,1.06.43.54-.32,1.49.53.85-.1.43.42.53,1.07.22,1.17v5.87l-.86.32,1,.63.11.75L226,45.2l-.22.32.43.32h.53l.43.42-.32,1.39.11,2.77-.32.43H226l.32,1.38-1.07.54h-.85l-.54,1.06-.42.32-1.07-.53-1.17,1L217.79,54l-1.07-.42-.21-.43v-.64l-.43.43-.32,1.17-.64-.21h-1.38l-1.92.42-.43-.63-1.6-1-1.38,1.59h-.86l-1.49-1-1.17.53-2.13.21L201.69,53l-.32.32v1.06L196,53.94l-.64-.32-1.17.53-1.39,1.49-.74,2.46-.43,3,.64,1.07.43,1.28,1,.74V65l.53-.21.32-.42.53-.22,1.28.32h6.18l-.32.53.11.54.53-.22.22-.53.42-.21.64.74,1.39-.1,1.92-1.07.32.43-.11,1.17,1.07-.43.32-.32.32.32V66l1,.64.1.75.75-.21L210.75,66l.43-1.06,1-.53-.22,1.17.75-.22,1.07.54.74.1.22-1.38.53.42.53-.31.75.1-.75,1,.54.21.95-.85,2,.32.21.53.32-.42v-.75L221,66.2l.21.74-.75,1-.21,1.39.43-.21v-.54l.64.11.74-.32.11-3,1.28.43.1-1,1.39.43L226.1,65l1.07.32,1.49-.74.43-.43.42.43.64.21.32-.42.32.42v.53l.32.43.11-.75.64-.1,1,.42.64-.21.21,1.28,1,1.49-.43,1.18.22,1.17.53.21L234.63,72l-.43.54.64,1-.53,1.7-.32.43.53,1.06.22,1.28-.32,1.28.32.54v.64l-.54,1.06-.42.43.64.85-.11.64-1.92,1.39-.32.53-8.85.21-1.17-.11-1.17-.53-1.17.53h-1.82l-.42-.32.42-.42-1.59-.32.1.64h.43l.21.32-.42.1-.43-.32-.11-.63-.53.85-1.39-.22-1.17.43-1.28-.21-6,.21-2-.43-1.18.54h-.85l-.53-.32-3.84.1-1.92-.53-1,.64-1.17-.21-1.81.42-1.28-.42-1.28.32h-2.66l-.43-1-.43.53-1.28.32-2.56-.32-.63.11-.43.32-1.28-.32-3.2.32-.74-.32-.43-.43L173,85.6l-2-1.49L170.25,83l.74-1-.11-.53-.85-.86.32-1.06.11-1.28L170,76.43l.32-2.34L170.14,70l.32-2.66-.11-.64-.53-1,.53-1.17.11-1.28-.64-3.94.64-1.71-.21-.75.53-1.06.1-.75-.85-.75.85-.63-.1-.54-.75-.64.22-1.17.63-1L170,49l.43-2.67-.11-1.17-.32-.54.22-.74.42-.53L170,42l.22-2.45V31l.42-3.41.75-1.39-1.17-.42.32-.64-.32-3,.21-.32-.11-.53Zm1.81,40.4-.63-.22.21.43Zm1.39-16.74.21.53,1.18.43-.11-.53-.43-.32-.1-.53-.54.1Zm1-22.28-.32-1.06-.43-.32-.1.74.21.54Zm-.75,25.27v.74l.54.22.32-.43.1-.75-.53.11Zm.32-22.07.22.53-.43.22L174,26l.21.53v2.77l1,.22-.11-.75.32-.74-.42-.43V25.69l-.22-.53-.53-.32Zm1.07,8.1-.64.22-.64.53.85,1,.75.21.32-2.45-.32-1.07h-.32l-.21-.64h-.86l1,1.39Zm-1.07-13.86,1.18.43-.11-.64-.64-.21Zm0,22.07.22.53v.86l.85.21-.32-.75.11-1.28L174,41ZM174,9.91l.42.22v.74l.22.43.1-.53.43-.32-.21-1.18-.64.22Zm.42,41.47-.1-.53-.32-.22v.43Zm.43-12.58.21-.42-.21-.54-.64-.21.11.85Zm-.21-1.38.64-.22.32-.53-1.18-.21V37Zm0-14.71h.53l-.21-.64Zm.21,33.79.64-.11.53-1.28h-.64l-.1.53-.43.32Zm.53-15.67H176l-.21-.54-.43-.32Zm3-4.8v4.16l.32.74-.22,1.18.22.42.42-.42.22.64-.22.64-1.38.53v.74l.74.11,1.28.75L180,43l-.43-1.39.75-1,.21-.64-.21-.74h.64v-.64l-.64-1.6.64.43.53-1.18-.32-.53h-1.07l.32-.64h.75l.1-.64-.85-.74-.21-.64.11-1.5-.54-.21-.21,1.17-1.07,2.88Zm-.43-12.58.21.64.54.11L180.48,26l-.75-2.56-1.38-.11ZM178.35,43v-.85l-.43-.32v.85ZM178.13,49l.75.42-.43.64-.32,1.17v1.28l.43.22.32.64-.53,1.06-.22,1.28.64-.43.75.22,1-2.13-.43-.22V52.13l1.07-.54-.11-.74-1.17-2-.11-.74-1.38.42.1-.74,1.6-1.5-.64-.32-1.28-.21-.21,2.67Zm.43-27.93L179.73,19H179l-.54.43-.32.64v.53Zm-.21,41.14h.32v-.42h-.32Zm.32,7.68.1-.64-.21-.32-.21.53Zm.21-52,1.17-.43.22-.53-.54-.43-1.06-.32.1,1.18Zm-.21,9.49.21.42v1.39h.43l.53-1.39-.11-.64-.32-.21Zm.21,29.52-.11,1.18,1,.21,1-2.13h-.64l-.53.85Zm0,3.95,1.81.53.32-.32.11-.64L180,59.8l-.64-.11-.22.54Zm.21-23.24H180l-.11.64-.53.11Zm0,12.58.54.21v.43l-.54.21Zm.43-43.07H180V6.72h-.43Zm0,23.56h.64l.42-.43-.1-.74-1-.32Zm.53,42.75.22-.64-.11-.75-.64-.21.32,1.06ZM180.27,36v.43l-.54.21.11-.43Zm.42,29-1-.63V65l.54.22Zm-.21-42,.21-1-.74.21-.11.53Zm.64,20.36.1-.64-.31-.43-.22.64Zm.32,5.22-.75-.75.22.75Zm-.53,17,.42-.32-.11-.43ZM182.82,29l.54-.42.1-.75-.53.22-.21.31Zm.43-3.73.11-.53-.54-.32.11.64Zm.21,20h.64l.54.32.21.43-1.39.21-.1,2.56.32,2.88L184,53l.53,1.06.85.75.22-.64-1-2.77,1-.75-.43-.42-.11-.43.32-1.17-.21-.64-.64-.21-.32-.64.64-.64.75,1,.1-.75-.64-1.92v-.85l-.42-.11-.22-.42.86-1.07.1-.75-.64-.21-1.28.64v-.64l-.42-.21.42,3.51Zm-.21-10.87h1.39l-.43.43H185l.21-.75-.43.32-.74-.74-.32.42-.11-.64-.32-.32-.11.64Zm0-23.77h.43v-.43h-.43Zm1.92,3.94-.21-.74-.54-.11-.42-.53h-.75l.32.53,1,.53Zm-1.92,15.14,1.17.64.32-.64V29.1l-.53-.53-.21.53-.54.21Zm0,6.29.53,4.9h.43l1-.74-.75-2.35,1-.42.22-.54V35.82l-1.28-.54-.54.22Zm.43-31.66.32.21.21-.42-.43-.22ZM184.42,26l-.21-.64-.53-.32.1.75Zm-.74,35.39,1,.43V60.65l-.64.22Zm1-39.76-.22-.43-.64-.1.22.64Zm0,51.38-.22-.53h-.64l.22.64ZM184,31.87l.53.43.11.53.42.43.22-.32V31.45l-.32-.64-.54-.22-.32.54ZM184.85,75v-.85H184l.21.85Zm.21-3.41-.1-.53-.54-.21-.1.53Zm-.64-53.83,1.18-.42-.22-.64-.53-.22-.43.64Zm1.18,47.76-.11-.85-1.07-1.07.22,1.28.32.53ZM184.42,79l.43,1.07.53.32V79.2l-.53-.32Zm.22-44.56h0Zm.42,25.26v-.53l-.42-.42v.64Zm.32-34.43V24.2h-.53v.85Zm0,32.84.22-.64H186l-.1-.64-1.07-.54v.86l.21.53Zm-.53,5.75.43-.32-.11-.53Zm1-14.6.11-.43-.32-1.17v1.28Zm1.38-5.33v-.64l-.42-.32-.11.64Zm2.14,3V45.3h.74l.22-.42-.43-.32-.32-.64.53-.21.22-.54-.43-.42L189,39.87l-.43-.32h-.64l.85,5.33-.64.42-.21,1.18.64.1.43.32Zm-1.18-13.75.11.75.53.42.32-.21-.1-.74-.32-.32Zm.22,4.05h.42l-.32-.42-.32.21Zm.42,13.65,1.5-.22v-1l-1-.21.64-.85-1.6-1-.11,1.28.21,1.38Zm-.42,1.7.74,1.6v1.6H190l-.22-1.28.22-2.88h-.43l-.53.86Zm1.17,15.78-.53.21-.43.54.21.63,1.5-.95-.75-.86Zm-.64,4.16.53-.11.75-.75-.75.22-.64-.22Zm-.11,3.94.11.53.43.22H190l-.22-.64-.53-.22ZM188.9,17l.64.21-.43-.64Zm.43,21.85.64.43.32-1.6-.75-.21-.21.64Zm0,19.94H190l-.22-.43Zm.21-53.2.53-.21.22-.43-.54-.32-.32.54Zm0,5.12H190l.21-.53h-.64Zm0,36.56.64.32.53-.1-.21-1.18-.53.22-.43-.22Zm0,28,1.17.42.22-.64-1.18-.1Zm.64-5,.75.21-.11-.75-.53-.21ZM191.35,40l-.21-.53-.64-.21.11.64Zm-.64,44.46h.43v-.32h-.43Zm3-44.24.21-.75-.64-.21-.11.53Zm-.43,3.73.53-.21.11-.75-.64.11-.11.32Zm.21-31.66.43.53.53-.74-.53-.22Zm.22,34.64-.22.64.11.64.43.54.85.1-.21-1.17.42-1-.74.11Zm.21,27.51.32.32.21.63-.74,1.07.21,1,.75-.21.1-1.28.54-.86L194.66,74l-.43-.32Zm0-35.4.75.43-.22-.75Zm.11,4.91.74-.11.43-.42.21-.64-.1-1.5-.64-1.06-.43,3.09Zm.21,1.6.43.74.53-.32.21-.64-.64-.21Zm.21,25.79-.21,1.18.21.74.54-.32V71.74l.42-.43-.42-.1Zm.22-50.63.53-.32v-.75l-.53-.32-.22.75Zm-.22,29.74h.43V50h-.43Zm.43-34.22.53.22.11-.75-.43-.43-.21.43Zm.53,52.13v-.75h-.53ZM199,71.1l-.32-.64h-.54Zm.1-1.81-.53-.21v1.06l.64-.53-.11-.64Zm-.32,6.93.11-.64-.32-.22v1.18l.43.21.42-1.28-.32-.21.11.64Zm0-30.7.32,1.81.32.53.54.22v-.75l.64-1.71-.43-.53-.21.53h-.54Zm1,35,.32-.42v-.64l-.32-.54-.64-.1-.1.74.32.54Zm-.64-41.89.43.32.11.64-.22,1.38.22.64.53.43-.32-1.17.32-2.45-.64-.11Zm1.07,11.08L200,49l-.43-.43-.21.53.21.43Zm-.64,19.83.64.11.32.32v-.64l-1-1.39ZM200,77h.53l-.11-.53-.21.32-.11-.53-.32-.22.11.54Zm3.51-.53v-.85l-.53.21v.43Zm-.21-5.76.43.22.21-.43-.43-.21Zm1.6,4.37.21-1-1.17-.22v.64l.32.43Zm.43-28.35-.32-.75.42-2.23-.1-1.18-.64.22-.43.42-.21.64.32,2.13.42.54Zm-.43-26.22-.21-.54-.54.22.32.42Zm-.75,17.8.54-.21v-.64h-.54Zm.32-31.55.75-.11.32-.43h-.85Zm.86,12.57-.11-.64-.32-.32-.11.64Zm-.22,58.63.22-.42L205.1,77l-.32.64Zm.75-67.69-.75.22.32.32Zm-.53,66,.21-.22-.43-.42Zm.74-4.69.54-.11-.22-.85-.32-.43Zm.64,4.9.54-.43-.75-.21Zm2.13-58.1,1.39.22-.11-1.49-.32-.54-.85,1Zm.43-4.9v.85l-.21.64.1.43.43.43.11-.54.42-.64h.54l-.32-.74.32-1.17-.32.42-.54.21ZM210,71.1l.53,1.17.43.43-.22.43v.74l-.32.32-.64-.21-.53.32-.21.64.21.64.64-.32,1.28.74.53-1.27.43-.54-.22-.74-.74-.75.43-.85-.32-.64-.54-.32Zm.42-58.84.64-1.07-.1-.53-1.18.43-.53-.43-.11.53.86.64Zm-.64,59.27-.1-.75-.32-.53-.22.53.11.64Zm.22-52-.64.1-.11.54.64.1.75-.32-.32-.64h-.54Zm-.22,33.9.22.42-.64.11Zm0-3.2h.75l.85-.54-.32-2.45.11-.74-.75-.22L210,47.33l-.32,2.13Zm.43-1,.21.53-.21.21ZM211,69.71l.1-1.06-.42-.32-.32.64v.53Zm-.32-30.91.32-.42-.22-.54-.32.54Zm.74,43,.22-.64-.32-.53-.64-.21.21,1.17ZM210.75,15h.43V14.6h-.43Zm0,64.92.54-.32L212,78l.53-.21-.85-1.07-.53-.32-.43,3ZM211,39.23l.42.21L211,38.8Zm0,6.29.85.21.1-.64-.95-.53Zm2.77,29.1,1,.21-.54.75.11.64.32.32.11.64,1,.74.32,2.24.32.53.42-2.45-.53-2.45-1.07-2.13-.64.11-.32.53Zm.74-4.69.54-.43-.11-.53h-.43Zm.86,1.92.74-.22-.74-1.49h-.86l.32,1.39Zm-.43-34.43.21.64.43.32.43-.32.53-1.07-.53-.11-.54.22Zm.21-22.82.54-.1.1-.64-.42-.22-.11.43Zm.64,68.33.54-.42-.54-.64-.32.53Zm.11-38.59.32-1.38-.43-.43-.21,1.39Zm-.11-2.55.43-.32-.43-.32Zm0,28.14.64-.11.11-.74-.75-.32Zm.75-23.67.11-.42-.32-.32-.11.42Zm2.56-35.39h.53l.21-.64-.53.22Zm.53,38.38v-.64h-.53l.1.53Zm-.32,20.89,1,.75v1l1.17.42-.53.43-.21.75.64-.11.32-.32.21-2.56-1.39-.53h-.64V67.37l-.53-.21.32,2.45Zm0,12.58H220l-.43-.53Zm.21-3v.64l1,.1-.1.64.42.53.64.22V80.48l-1.06-.32.1-.64-.53.11Zm1.18-32.62.21-.86-.43-.42.22-.75-.64-.21-.32,1.28.21.53ZM220,7.57l.53-.21.32-.43H220Zm1.17,5.65-.53-.43.21-.74H220l.21.74.53.43ZM220.67,16l-.22-1.6L220,14v1.18l.32.53Zm.21-10.45V4.37l-.43-.21-.32.53v.64ZM220.24,49H221l.21-.75-.43-.21-.42.32Zm.21,35.39,1.18-.32-.11-.64L221.2,83l-.53-.11-.43,1Zm0-10,.32,1.17-.1.64,1.17-.64-.21-.75-.64-.42ZM221,79.2l.32-.53.32-1.92-.64-.11-.54,1.28.11.75Zm0-38.05.21-.75-.53.32Zm0-1.92.21-.54-.32-.31Zm-.11,3.09v.43l.32-.22-.21-.42Zm0,11.3,1,.11v-.64l-.21-.43-.64-.11v.54Zm1.28,29.31v-.85h-.53l.21.53Zm1.28-80.16.74-.32h-.53Zm1.28,71.1v.75l.42.64.64-.11.75.21-.11-.74-.85-.85-.64-.32.21-1.39-.53-.32.11-.64h-.54l.11.64-.32,1.6.11.43Zm0,4,.21-1,.53.22.64-.54-1.17-.1-.53-.32-.22.64.11.64Zm.85-9.59-.11-.53-.74-.11.32.43Zm.21,13-.21-.53-.64-.11.21.54Zm0-10.87V69.08l-.42-.54L225,69.61l.32.42Zm-.21-64.7.53.21.43-.43-.75-.42Zm.53,3.3.22-.75-.75-.21.11.64Zm-.53,7.46.53.11-.1-.43Zm.75,25.05v-.64l-.54-.1.11.53Zm-.54,1.18h.54l.21-.43H226Zm4.27-37h.64V5.22L230.26,5Zm.64,62.14v-1l-.43-.42-.11,1.17Zm-.22,6.93.64-.21.11-.75-.64.22Zm1-8.31.43.53.53.11-.1-.64-.43-.32Z"/><path class="cls-1" d="M327.7,3.73l.21.64,1,.85,1.38-.32.32.43v.75h1.28l.11.53.75-.11,1.28.32,2.13,1.39.64.21-.11.75.21.42,1.07-.21.85,1.07,2,1.7,1.17.64L341.66,14l.32-.64,1.6,2.14,2,1.81.32,1.28,1.92,3.09.22,1.17-.11.75.43.42h.74l.64,2.46,1.17,1.7.11,1.39.85,2.13-.1,1.07.64,5.22.42,1L352.43,41l.42,1.81-.21,1,.32,1.28v1.28l-.21.53-.54.54.43,1.06-.11,2.35L352,53.51l-.11,2.13-.64.32L350.72,57l-.21,2.77-.54.43-.42,1.17-.43.53-.1,1.28-1.71,3.31-.53,1.92-1.07,1L345,70.46l-.21.75H344l-1.17,2.24-.85.85-1.71.85.22,1-1.18.64L335.05,80l-2.24,1.28-1.17.42-.85-.42-.64.32-.75,1.28-4.16,1.28-.53.42-.53-.21-3.41.43-1.18-.32-.85.85-3.62.32-.64.21-.43-.53v-.53l-.43-.11-.74,1-1.39-.43-.53.43-.53.1L308,85.49l-.54.32-.42-.53-.64-.32-.75,1h-.75l-2.55-1.39-.86.75-3,.64-.32-1.17-.43-.32-.53.21L297,85.81l-1.18-.32h-1.06l-.54.32-.74-.21-.43-.43-.64.32-3-.21-1.18.64L287,85.6l-.43-.43-.53.43-.86.21-2.24-.53-4.79.32-2.24-.22-.32-.42-.11-.75-.64-.21-.32-.32-.21-1.17v-2L274,79.42l.53-4.06-.42-2.66L274.5,70,274.18,69l.32-3.73L274.29,64l.21-.53.43-.32-.43-1.18-.32-2.66V56.6l.75.11.43.32.32-.43-.22-.32h-.53l-.75-2.45.32-1.06.11-3.1.32-.53-.75-.74.22-1.28-.22-4.69.75-.11-1-1.81.43-1.28.1-1.28-.42-4.9.42-1.82-.32-2.45.22-1.7.32-.54-.54-2.45V22.71l.32-1.28-.32-1-.1-2.56.42-1.81-.42-1,.21-4.05L274,10l.53-.85-.32-2.45.32-2.67.86-1.49,3.94-.85,1.49.42L282,1.81l1.39-.1,3.94.21,2.56-.43,1.18.86.53-.32,2,.1,1.07-.42,3.09.42,1.17-.42,2.14.64,2.45-.43,1.38.21,1.28-.42,1.28.64.64-.32,3.2-.11.43-.43,1.17.64,1.28-.32,1.28.32L318,1.92l1,.64h3.62l2.13.64,1.17.74.64-.32h.54ZM274.93,28.25l1.17-.11-.32-.64-.64.11Zm.75,55-.22.54.43.64,1.28-.64.32-.54-.53-.32h-.54Zm0-64.38,1.38-.22V17.8l-.53-.32-.53,1Zm.42-1.81.22-1.18-.43-.42-.11,1.38Zm0,3.41.54-.54-.11-.64-.43.64Zm.75,24,.74-.21.64-1.17-1-.75-.22-.64.53-1.17-.31-.43-.32.43-.43,1.28.11,2Zm.43-37.95-.43-.64-.11.54ZM276.74,23l1-.86-.32-.42-.64-.11.11.75Zm1,3.94-.42-1.6h-.54v.75l.32.64Zm-1,26.33.43.21.53-.21-.21-.53-.64-.11Zm.11,5.12.53.21-.1,1.17.63.21.43-.63-.43-1.07v-.64l-.85-.21-.1.42Zm.21-26.76.53-.43-.31-.53-.11.53Zm.22,49.14.63-.11V79.42l-.63.42-.22-.42.22.64Zm0-69.39,1,.32L278,11l.43-1.39-.54-.21-.42,1.17Zm0,4.69.74.21v-.64l-.53.11Zm.63,8.42-.21-.43-.42-.11.1.43ZM277.7,45.2l-.42.42.1.64.43.54.1-1.18Zm.32,3.52-.53-.11.21.43Zm-.32-11.41,1.17-.32-.21-.75-.43-.42-.64.85Zm.21,27.18.11-.64-.32-.32-.11.54Zm2.67-45.2.21,1,1.71-.42.64.21.21-1.17-.53-.32-.86-.11-.21.75-.53.21Zm0,31,.43-.21.21-.53h-.64Zm0,17.91,1.28,1.18-.11-1.6-.53-.32-.32.42Zm.21-32.3h.64l.22-.53.21.21-.21-.42-.43-.22-.11.54Zm0,2v.85l.43.32.32-.53L283,37.31v-.53l-.64.21-.85.85Zm.86,14.18-.54.21-.21,1.07.32.42.64-1.38V51.7l.74-.11.54-.32L282,50.53l-.31,1Zm-.43,22.6.11-.43L281,74l-.11.43ZM281,28.25v.85l.64,1.17,1-.64.86-1.06.1-.43-.21-.64-1-.53-.74,1Zm1.59,31.13-1,.85v1.28l.53,1.6L281,62.57l.1.64,1.28.75.64.11-.21-2.24.53-3.2-1.06-.75-.43.11.32.32.11.64Zm-.74,11.19-.85-.11.32.43Zm-.21-13.11.21-.54-.11-.53-.53-.11-.11.64ZM281.43,8l.64.32L282.6,8l-1-.53Zm.43,31.56.53,2.77-.64.21-.32.75,1.17.43.54-.11-.22-.53.22-2.78-.11-.53-.43-.21Zm-.21,8V48l.31.43h-.53l.11,1.06,1,.21.64-.53v-.85l-.32-.53-.53-.32Zm1.17-29.63-.22-.64.11-.64-.42-.43-.64-.1v.64l.74.85Zm.32,6.29L283,22.6l-1.17-.21.43,1.27v1.28l-.64,1.18.31.42.22-.85.42.32,1.39.11-.21-1.28.21-1.07.43.64-.11-1.49-.43-.53h-.53l.32,1.38Zm0,22.6v-.54l-.32-.53L281.65,45v.86l1,.74ZM282.39,31l.32.53.11.86-.64.1-.32.32.32.54.42-.11.32-.43.43.22.32-1.39L283,30.49Zm0-17.91.43-.53L282,11.41l.11,1.28ZM282,74l1.39-.43.11-1.28.74-.64L283,70.78l.32-.53-.53-.64-.75,3.73Zm.64-60-.42-.64-.11.54Zm-.21,21.22.64.42,1-.42V33.79h-1.81l.11.75ZM283,67.05v-1h-.85l.21.64Zm0-11.62.11-1.6h-.54l-.21.64.11.75Zm-.64,25.05.53-.21.22-.64h-.75Zm0,2.77.43.11L283,83l-.43-.21Zm.43-4.15.42-.32.22-.75-.43-.32-.43.21v.64Zm0-68.87.42-.32.11-.74-.53-.11-.11.43Zm.32,11.2.21-.64-.32-.32-.32.64Zm0,54.25.1-.64-.42-.31-.11.63Zm0-58.94h.64l-.43-.64Zm1.81,68,.53.21.43-.21-.53-.32Zm1.6-72.17-.43-.64-.42.43.1.53.32-.11Zm-.43,11.83.64-.21.32.32L286,26.12l.74-.22-.1.64.32.64.74.32.53-.42.43-2.67-.53-.21.42-1.71-.32-1.28-.42.22-.54-.22-.21-.64h-.74l.21.86-.11.64-.53,1.06v.53Zm-.21,3.31.43.21-.43-.64Zm2.34,11-.32-1.7.22-.85-.64.32-.75,1-.64-.11L286,38l.42,1.92-.1.64-.43.53.32.64.53.43.75.21.21-.64-.43-1.39,1-.74-.32-.64Zm-2.34,22.82.75-.11.1-.43-.32-.53-.53-.21L286,61Zm0,8.74v.64l.43.32-.22-.75.64-.43Zm.43-24.09,1,.42-.53,1.28.32.86,1.07-.11.53-1.39-.43-.32-.21-.53.11-1.92.74-.11v-.53l-.42.21-.32-.53-.43-.21H287l-.32.32-.54-.32.22,2.34Zm1.91-13.11.11-.54L288,30.06l.11-1.39-1.28-.21-.53-.32V29l.42,1-.21.54.74.21V32l.33.75Zm-1.91,2.87,1-.21.43-1.07v-.85h-.64l-.64,1.49Zm.21,13.22.21-.64-.42-.32v.64Zm.53-42.53-.53.21-.11.54.43.1.21-.42Zm-.53,3.73V11l.21.43.75-.22.21-.53-.43-.43Zm.43,6.4.74.74-.32,1.17-.74.75-.11.64h.53l.64.43.53-.43-.32-1.71.32-1.27-.53-.32.21-.54.32.32.11-.64-.21-.42-1,.42Zm.31,57.77L287,75.68l.31,1.71,1,1.07-.1-2.46.32-.64-.32-.63-1.39-1.6-.1.64.32.32Zm-.53-9.38.11,1.28.42.32.64.11.22-3.09-.64.42-.11.54ZM287,8.42l.53.21L287.08,8Zm.31,5.33.43-.85-.64-.11-.1.64Zm-.21,11.94.32.53-.42.32Zm0,26.44,1-.64.21-.54-.74-.42L287,51.59Zm-.1,3.51,1.17.22-.43-2H287l.1,1.28Zm1.17,5.12.1-1.92-1.17-.42-.1,1.27.64,1ZM287.29,38l.43.53-.21.43h-.43l.11-.53Zm-.21,24.62.64.32.75-.1-.11-.54-.53-.32-.43.11Zm.64-56h.43l.1-.53h-.32Zm0,72.81.43.53L287.72,81h.43l.42-.32.54-1.27-.75-.32Zm0,3.83.32.64.64-.1-.32-.75Zm.21-11.51.43-.21-.43-.32Zm.54-43.6-.22.53.43-.32Zm3.2-8.85-.54-.1-.42.21L291,20h.42l.86-1,.21-.75-.32-.42h-.75l.11.74Zm-.86-7.14.64.43.64-1.39h-.64l-.32.54Zm.43,2v-.64l-.43-.22.11.54Zm-.43,26.54.22.64.64.32.64-1,.53-.21-.22-.54-.42-.21-.21.53-.54.11Zm0,26.54.32.54.75.1.21-1.28-.53.54ZM291,70l-.11.64.53,1v.75l.43.43.53-2.35-.21-.64-.32.32Zm.21-46-.21.64.1.54.75.74.74.22.43-1.28-.21-1.28-1,.42ZM291,43.49l.42.53.22,1.18.53.42.11-1.06.74-1.71-.43-.42H292l-.64.42Zm.64,38.16.21-.64-.21-.63-.64-.11.21,1.06Zm.53-59V20.47l-.75-.22-.32,1.39.11.64.32.32Zm-1,8.1.64-.32.74.64-.1-.75-.43-.32-.53.22Zm.43-.85.21-1-.53.53Zm.21-21L292.2,8h-.75v.64ZM291.45,51l1,.32.43-1.49h-.75l-.42.53Zm.22,14.18,1.17-.21-.22-.75-.53-.1-.53.42Zm.21-12.79-.21-.43v1.28l.42.85.53-.21.22-.64-.32-1.28-.32-.21Zm0,8.21.64-.11V59.16l-.43-.32L291.67,60Zm.74-46.8h.43l-.32-1.06-.53-.11-.11.64Zm-.53,20,.43.11.32-.53-.53.1Zm0,15.35v.43l.32-.22-.21-.42Zm.32-1h.64l-.64-.42Zm1,14.71-.32-.42-.64-.11.32.64Zm-1,13.86h.43l.21-.64h-.64Zm1.17-65.13V10.55h-.53v.75ZM316.08,23l-.64.42h-.75l-1.17-.53-.64-.53-1.6.74-2.45-.32-2.56.11-2,.42-.53-.31-1.17-.11-3.2.32L298.7,23l-2.24,1.91-.32.64.22,2.35-.43,6.71.43,3.31-.43,1.38.43,1.07-.11,5,.32,2-.64,1.28.43,2.45L296,55.32l.1,1.28.43,1.07-.43.53.11,1.71-.32.42.11.75.53,1.28.85,1.07,1,.74,1.49.75,2.46-.64,1,.64,1.7-.43,3.94.43.43-.43,1.39-.1,1.17.53,2.34-.85-.1.74.32.53.64-1.27h1.38l1.28-.32,3.09-1.6,1.92-.22,1.6-2L327.06,58l-.11-.75,1.28-2.13v-.85l1.17-.43-.32-1.17,1-1.49.21-3.41.54-1.18-.22-2.34.43-1.92-.43-.85V40.19l-.32-1.07.32-1.38-.74-1,.21-1-.53-.43-.64-1.07-1-4.47h-1.07l-1-.75-1.81-2-.53-1.39-.75-.11-.42-.42-1,.1-1.28-.32-1.81-1.6-1.07-.53.21.43-.21.32-.64-.22Zm-18.34-12.8-.64.11-.42-.21-.54.1.22,1,1-.42H298L298.17,9,298,8.42l-.33.53v.54Zm-1,58.63-.1-.64-.54-.32.22.64Zm.22,1.39h.74l-.42-.54Zm0,8.21h.53l-.32-.75Zm1.17-64.92L298,13l-.75-.1.32.74Zm-.85,3.73.53-.32.64-1.28-.64-.85-.64-.11.11,1.81Zm-.11,2.34.53-.32-.21-.64-.32.43Zm.32,60.87h.64l-.11-.53-.32-.32Zm.21,2.35.22-.54-.22-.42-.21.53Zm2.77-71.64,1-.21-.32-.53-.1-.86h-.54Zm.54,2.77.32.64-.43,1.07.32.75.64.32V16.1l.32-.32.64-.11-.21-.64.85-1.71-.85-.74-.86,1.06Zm.42,6.83,1.18.21v-.64l-.22-.43-.53-.1-.32.42Zm2,53-.21-.64-1.39-.75.11.53.95.64Zm-1.17-62.15v.32l.32.21.21-.42-.21-.32Zm.1-2.45h.43V8.85h-.43Zm0,59.48.86-.21-.54-.11ZM303.29,82l-.64-.53.21.43Zm-.43-71.42h.43v-.32h-.43Zm2.56,6h.74l.11-.74-.43-.32-.32.42Zm.21-2.24.53.22.11-.64-.43-.32Zm.43-1.49.53.43.64.1.53-.42-1.28-.43Zm.32,56.82.21-.75-.53.32Zm-.22-60.23h.64l-.21-.75-.32.22Zm.22-4.9.1,1.38.32.54.64.1.11-.74-.32-.64.21-.64L307,4.05Zm1.81,5.11v-1l-.43-.42-.21.53.21.64ZM307.76,73l.53-.32.43-1.28h-.64l-.42.43-.11.53Zm.22-3.84h.42l.21-.32-.63-.21Zm.42,14.61-.11-.64-.31.1Zm0-71.85h.53l.22-.32h-.75Zm2.88-.21.43.21.85-.32-.11-.75-1.28-1.28-.21.64.43.86Zm.21,2,.64-.11.43-.53-.64.21Zm0,2.13.75-.1.32-.32.32-1.18-.53-.1-.22.64-.42.42Zm0,6v.32l.43-.21-.21-.32Zm.64,46.8-.21-.43-.43-.21.11.53Zm.22-59.59V8.53l-.64-.32.1.64Zm.74,9.81-.32-.64.11-1.71-1.17-.21.1,1.49.32,1,.32.21Zm-1-12.26.22-.53-.43-.22Zm0,72.49h1.39l-.22-.75-.95-.85-.43,1.06Zm1.92,2.13-.11-.54-.42-.21v.64Zm.43-11.62-.64-.21.32.42Zm2.13-61.19.11-.75-.43-.42-.21.64Zm0,72.81v-.64l-.32-.32-.11.64Zm-.32-70,.43.11L317,11l-.54-.11Zm.11,5.55.53.74-.43.75.32.42.43-.21-.11-.53.86-.85h-.54l.22-.54H317Zm0,57v.53l.32.64.53.42.43-1v-.64l-.64-.22Zm.42-59.59.11.74.75,1.18.32-.64.21.42L318,14.6l.42-.64-.64-.64-.42.43ZM317.46,72l.54-.85v-.64L316.82,70l.11,1.6Zm0,4.37-.21.43.32-.21.11-.64-.64-.22Zm.32,5.12V80.8h.64l-.1-.74-.64-.22-.22.54.11.63ZM318,12.15l.53-.32.1-.53L318.32,10,318,9.59l-.43,1.28.11.64Zm3.41-2.56.64.11.32.53.53.11.43-1.28-.75-.43-.75.43Zm0,5.76.21.75-.11,3.41.22.53.42-.53.64-2.45V15.14l-.85.1Zm.53-1.39h1V12.9l-.64.53Zm.85,10.56-.32-.43.43-1h-.75l.22,1.39ZM322.37,72l1.17.22v-.54L323,70.46l.32-.64-.43-.53-.75-.21.43,2.23ZM325.88,70l.64.54.32,2,.64.22v-.64l.43-1-.43-.64-.1-.54.32-.63-.75.31-.32.43Zm.22-55.75,1.17.22.53-.86.11-.74-.64-.11-.85.85Zm.42,52.34.64.43.86,1,.1-.85L327.91,66l-.85-.85-.54.75Zm.11-56.07.75.86.53.21V10l-.32-.53-.53-.11v.53Zm.21-1.49.86.43V8.21l-.64.32Zm0,69.08,1.18-.43.21-.64-.11-1.39-.21-.53h-.64l.32.64-.64,1.6ZM328.23,22l-1.17-.32.21.53.43.11Zm-1,4.8.64-.43.11-.75h-.54l-.1.54Zm.75-6.19v-.74h-.54l.11.64Zm3.41,41.79V64l.32,1.17.64.21.32-.53-.32-1.06.21-.75.64-1,.11-.85-.64.21-.64.85Zm0,4.9,1.38.22.22-.86-.75-.1-.43.32Zm1.38-12.15-.32-.43-.53-.21-.11.64.43.32Zm-.85,4,.43.64h1l.21-1.17-1.07.21Zm.21-1.92v.54l.64.21.22-1Zm.64-36.45.11-.54-.53-.42-.11.74ZM332.39,31l.74-.53-.32-1.18.64-.21-.1-.43-.32.22-.43-.22-.32,1.71Zm0-6.61.42.53.32-.53-.53-.21ZM333,38V37.2h-.64l.1.54Zm-.22,32.62.43-.32.21-.64-.1-1.49-.22-.43-.42.32-.22.53.11,1.39Zm.32-48,.22-.64h-.75l.11.53Zm.22,52.76-.75-.21.32.53Zm.85,4.06h-.85l.21.53H334Zm1.92-59.59.64-.22v-.53l-.86-.64v.85Zm.42,16.31v-.75l-.42-.43-.22.54.11.42Zm0,3.19.54.22-1,.74.21,1,.75.11.85.75-.11,1.17-.32.32-.21-.32-.43.21.22.75-.32-.22-.22.64.32.43.64.11.22-.64.74-.11-.21-.43.11-.63.53-.32-.75-4.38-1.38-.31-.11.53Zm.32-14.92-.53-.21.21.42Zm-.53,3.09.75.32,1.38-.1-.21-1.39.21-1.39h-.74v.75l-1,1.39Zm.43,9.81v-.64l-.43-.32V37Zm-.43,15.24h.75l-.22-.85-.32.32Zm1.17-30.16.32-.43.32-1.17-.64-.22-.42.22L336.54,22v.64l.43-.21Zm-.42,31.87h-.54l.22.85v1.28l1.38-.53-.1-.43.21-1.17-.11-.53.54-1.28-.43-.32-1.07,1.17Zm-.22,2.34.54,1,.1.64-.74.22v1l1-.75,1-1.81-.22-.43-1.06.32Zm.22,5.55.64,1-1,.21.42,1.39.54.42.53-.32.21-.74-.32-1.18-.1-1.81-.32-.32-.54.53Zm-.32,4.37.1.85.43.53.53-1.38-.53-.43Zm0,3.51h1.17l-.11-.63-.32-.32-.53.32Zm.1-59.26h.86l-.64-.86ZM337.5,47l-.64-.21.32.42Zm.43-6.72-.21.43h-.64l.32-.32Zm-.85,9.06.85.75.85-.75.11-.63-.43-.32-1,.64Zm.21-19.08.21.54h.64l-.1-.54-.54-.21Zm.85,16.53.64-.32.11-.43-.21.11-.86-.64-.53.1.53.43Zm-.64-12.37.54-.32.32-.53.1-.75h-.74l-.22,1Zm0,36.78v.53l.43.21.32-1Zm.43-34.43-.21,1h.53v-1Zm1.38,3.09.22-1.07-.43-.32-.21,1.07Zm1.92.21.43-.32-.64-.21ZM341,55.86l.21,1.17-.21.43h1l.11,1.38.74,2.35-.85.64-.11.53.54.32,1.17-.53-.21-.64V59l-.86-2.45-.1-1.28.53-1.07.11-.64-.43-.42h.64l-.53-2.24.1-1.5-1.28-.21-.53.21.85.75-.32,1.28-.32.32,1,.75.43.1-1.39,2.67Zm1.17,11.4-.74-.21.21.53Zm.86-33-.11-.53-1.07-.11.22.53.42.21Zm-1.18,2.13h.54l-.22-.53Zm1.39,13,.32-.63-.43-.54-.1-.53.74-2.67v-.74l-1.17-.43-.53,1.07-.22,1.17.22,1.92.64,1Zm-1.07,14.93.43.21.21-1-.74.22Zm0-39.87.54-.11.32-.32-.86-.21Zm.22-1.6,1,.22-.43-1.18-.53-.21Zm1.17,3.31-.32-.54-.64-.21.11.53.42.32Zm-.75,6,.64-.11-.1-1-.75.21Zm0,3.51h.54V35h-.54Zm.22,7.25.64-.21.1-.75-.74-.21-.22.64Zm.32-2.34.42-.75-.53-.21-.21.53ZM347,31.87l-.21-.64-.43-.42.11.85Zm1,13.33L347.52,44l.86-.21V42.64l-1.28-.21-.75,2.45V46.8l.64-.22.43-1.17ZM348,51l-.32-2.45L346.78,47l-.22,1.28.11,1.92.75.74Zm-1-12.79.43,1.71.53.21.85-.75L348.7,38l-1.07.43Zm.53-1.38-.21-.86-.11.54Zm1,9.06-.1-.43h-.86l.43.53ZM351,55.43l-.11-.43-.42.22Z"/><path class="cls-1" d="M384.84,4.37l-.75.43L384,4.26l.64-.21L385.9,3,389,2.24l.75.64.43-.32.21-.53.74.21,1.18-.75.64.22,1.6-1.28.42.32,2.13.53.22-.85,2,.32.54.32.32-1,1.38.32,1.28-.22h2.56l7.78,1.28.64,1h1.49l2.45.43,1.07.74h.85l.43.43,3.62,1.49.86.86,2.34,1.06,1.92,1.71.32.53,1.39.43,1,.85.53,1.28,1.17.43,1.6,2.13,1.17.64L440,20.57l-.75,1,.32.75.64-.32.21.43.54.1-.11.75,1.07,1.6L442.4,26l-.11.64.43.21h.64l.1,1.49,1.39,3.52v.54L444.1,32v.53l1.5,3.2.1,1.49-.21.86h.75v7.88l-.32,2.56.1,1.28-1,2.24.22.64V54L445,55.32l-.64.86.21,1.17-1.6,2.34.22.64-1.71,3.42-.11.64-1,.63v1l-1.7,2-1.39,2.24-1.6,2-2.24,1.39L432,75.79l-1.6,1.07H429l-.43.21v1.17l-1.81,1.6-1.07.64-1.49.32-.85,1-1.07.75-1-.54-1.6,1.6-1.17-.42-.64,1.17H417l-1.17.32-.54-.53-1.17,1.27-4,1.07-1-.43-.11-.53-.64.64-1.17.64-1.38.21-1.28-.32L404,87l-3,.32-.53-.21-.64-.85-1.07.64-.75.21L396.67,87l-1-.74-1.17.42-.54-.32-3.3-.53-1.07-.75-1.38.11-3.2-1.49-.21-1-.64.11-2.35-1.07-1.28-.21L379.51,81l.53-1-.32-.86-.53,1.39-.64-.32-.32-.53-.11-.75-1.39.21-1.59-1.06-.64-1.82.1-.64-.53-.21-.43.64v.53l-.74-.74-.64-.32-.75.1-.85-2-.64-.11-.43-.32-.32-1,.86-2.77-1.39,1.17-.64.22h-1l-2.24-3.2-.53-1.28L365,66l-.32-.64-2-1.38-.42-.53-.22-.75.86.11.32-.32-.43-.43-1.17-.21-.54-1.92-.64-.22.11-.74-.42-1.07-.43-.32.21-1-.32-.42-.42-3-.86-1,.11-.74-.75-4,1.07-.21V46.16h-.43l-.42.32-.11-1.18-.43-.53v-.85l.32-1.17-.32-.54L358,41l.22-2.45.32-.53-.43-.54V36.35L359.25,35l-.42-1-.11-1.27,1.6-.75.1-.85h-.74L361,27.18l.32-.53,1.38.43-.42-2,.74-1,.43-1,1,.32.53-1.6-.53-.32.32-.64L366,19.61v-.85l1.17-1.28.21-.64,1,.75.22-.64-.32-.75-.32-.21.42-.75,1,.54.86-.64.53-.11v-.64l-.32-.32.43-.43.42-1.38.64-.21.21,1.17.32.21.54-.21-.32-.53-.54-.22,1.6-1.6.43.32.75.11.32-.43.1-1.38,2.13-1.6,1.39-1.49,3-.43.1-.64.85-.75,1.18.64h.74l.22-.42ZM358.93,48.72l.54-.22v-.64l-.54.22Zm4.48-10.88.53.32.11,1.28.53-.11.22-.42-.43-1.81h-.53Zm0,11.09h.64v-.64h-.43Zm.21-19.72h.43v-.43h-.43Zm0,4.48.54.42.64-.21-.43-1-.43.32ZM363.84,54h.32v-.85h-.32Zm0,3.52h.32v-.42h-.32ZM365,62l-.21-1.39h-.64l-.11.64.21.54Zm-.85-18.12h.53l.32-.32-.53-.11Zm.42,3.84.22-.64h-.64Zm-.21,11.51.53-.21.32-.54-.64-.21-.1.43Zm3.2-21,.64.21.32-.64-.43-.53-.43.43ZM369,26.65l-.32-.53-.53-.22.21.75Zm.54,38.16.42.43.32-1.81-.1-.54-.64-.42-.11-1.39.32-.75-1.6-.42.85,3.73.32.53Zm-.32-10.45-.86.75v.64l.64.11,1.07-.54.43-1.17-.11-.32h-.85l-1-.64-.11.64.32.21Zm-.43-29.63.85-.75.75-.1-.64-1.07-1.17-1.28.21.64-.32,1.92Zm0,7.78.53,1.07-.74,1.17.21.53,1.07-.42h.53l.53.42-.21-.74-1-.85.11-.86-.64-1.06Zm-.21,7.36.21.64.75.1.21-1.17-.64.11Zm.74,9.8v-.74h-.74l.21.53Zm-.74,8.85.21.54.43-.11.1-.64ZM368.74,29l1.39.64.21-2.34-.64-.21Zm0,17h.43V45.2h-.43Zm.75,22.39.32-.53v-.75l-.54-.43L369,68Zm-.32-37.95h.64l-.32-.53Zm.74,6.5.11-.53-.43-.53-.42.1.21.64Zm-.74,20.47.53.11v.64h.64L370.13,57l-.86-.85-.1.42Zm.32-39.12L370,18l.32-.43h-.85Zm1,7.78.21-.32v-.64h-.53v.64Zm2.23-8.63.43.32h.53l.43.32-.32.74.11.64.21-.53,1.17-.54-.32-1.27-.1-1.82h-.54L373.11,17Zm.22,3.73.53.1.32.43.53.11-.21-1.6-.85-.22-.22.54Zm0,34.85.53.22.75,1.49.64.11.1-.43-.32-1.17-.53-.11-.53-.43.1-.64h1.18l-.22-.74-.42-.22-1,.54-.32.64Zm0,7.15h.53l-.11-.64-.42-.22Zm.32-38.81.85.43-.11.75-.32.53,1,1.81.64-.42-.85-4.69.11.63-1.07.11v-.53l-.43-.21.22.95Zm.21,49.36V73L373,72.7v.64Zm.21-12.15.75,1-.43.32-.53,1.06.11,1.28.32.64-.54.53v.64l.54,2,1-1.6.21-.75-.64-1.81.85-3-.42-.54V59.48h-.75l.11.85-.22.54Zm.75-27.19.43-1.38-.43-.21h-.75l.22,1.38Zm.43-3.3v-.64l-.43-1h-.53l.32,1.39Zm-.22,42.85h-.74l.21.43Zm-.53-37.41.21.53.75.11v-.86l-.53.11Zm.75,13.43.21-1h-.75l.11.64Zm2.55-41.58.32.43h.64L378,8.21Zm.43,50.21.64,1.6.75.21.21-.42-.21-.53-.86-.64.54-.11.53-1v-.75l-1.07.54L378,58ZM378,15.24l.75.54-.43,1-.21,2,.64.21-.21.64,1,1.5.42-2.46-.21-1.27H379l.32-.64.86-1-.32-.32.1-.86-1.6.32Zm1.5,46.05-.54.32-.42,2H378V65l.54.22.21-.43.43-.21v.53l-.43,1.17.21,1.07-.42.21-.22.43.54,1.28,1.06,1.6.11-1.28-.53-2.45.85-.54-.43-1.28L379.4,65l.53-.63-.21-2.67.43-.64v-.43l.74-.1-.32-.64-1,1Zm-1-4.69.32-.32.21-1.28-.32-.42-.53,1.6Zm-.22-33.68.64.53-.42,1.39,1.7-.43.43-.32-.32-.75-.64.32.43-1.17-1.39-.1Zm.22,6.5h1l.1-.64-.42-.32-.32.43ZM379.4,75l.53-2.55-.32-1.6-.42-.32-.54,2.88.32,1.17Zm23.77-57,.85.74.32,2-.53.1-.21.43-1.28-.11-1.39.22-.53-.32.43-1-1.18.1-.64-.32-.1.54.21.53-.11.53-2.13-.64-.32.43L395.5,22l-1.28.32-.54-.11-.53-1.06h.64l.53-.43.54-1.17-.22-1.39-1-1-.21.64.43,1.07.42.32-.42.32-.43,1.17-.75.11.64,2.13-1.17-.21v.74l-.21.43-.43.21L391.12,23l-.53-.32.11,1.17.21.42-.53.11-.85-.53h-.75l-.43,1.06-.1,1.28-3.09,2.24-.86,1.71-.53.21-.32.43h-.53L382.17,32l-.32,1.07.11.64-.64.21-.21.64v1.17l-.75,1.71-.21,2-.64.43-.32.53.53,1.28v.75l-.53,1.17-.43.21.32.32.75.11.32.32-.54.42-.21.54.75,1.17-.43.64.21.75h-.64l-.42.32-.11.53.43.32,1-.75.42.32V50.1l1.07,2.45.11,1.28-.22.53,1.71,1.07-.11.85-.32.43.11.64h.64l1.06.43.22.42V59l1.38.32,1.07,1.49.32,1.28.64-.75.42.64.11.75.64-.11.75.32-.32.54.32.64.21-.86.53-.32.32.43,2.35,1.07.85.74.11.64.53-.21.21-.54.64-.21.54.53,1,.32h1.17l.85.32h3.2l.32.22v.42l.42-.1.22-.54.42.22,1.07-.54,2.24-.21,2.45-1.17L411,64l.64.11.43-.54,4.58-2.66,1-.86.75-1.06.42.32h.54L420,58.2l.64-.21-.32-.64V56.6l1.28-2.45.64-.32.64-2.77.11-1.39.42-.42.86-5.23-.11-4.15-.85-2-.11-1.38-1-1.28L422,33.9l-1.17-1.39L420,30.59,418.09,28,416.39,27l-1.17-1.71-3-1.81h-.74L410.31,23l-.32-.54-.1-.74h-.64l-.32-.54-.64-.32-1.17,1.28-.54-.42-1.81-.43-.43-.43.54-.53.21-.75-.53-.21V18l.74-3.42h-.53l-1.17,3Zm-24,61.61.21-.64-.43-.43-.21.64Zm.21-48.5.32-.11V30h-.53l-.22.75Zm-.21,3.94.64-.32.1-.85h-.53l-.32.64Zm.53-21.43.21-.64-.42-.31-.22.63Zm-.32,38.81.53-.11.22-.53-.64-.22Zm.53,26,.22-.43-.43-.43-.11.54Zm.75-4.59.53-.32-.1-.42-.32.21Zm3.62-58.63.22-.53V13.22l-1.39-.11-.21.75.74,1.06Zm-.85,45.41-.32.75.11.64,1-.85-.11-.64Zm-.32,3,.43,1.38.32.43.64.32.32-.53-.32-2-.86.11Zm.32,3L383.13,69l.43.43.74.1.22-1.38.42-.54h.54l-.22-.53h-.32l-.1-.64-1-.21Zm-.21-54.89,1.28-.22-.43-.53-.53.11Zm0,6.29.64,2.23,1,.22.64-.11-1-1.81.32-1-.32-.53H384l-.42.32Zm0,41.89h.42v-.43h-.42Zm1.28,11.83v-1l-1.07-.43-.21.64.85,2.46.43-.11.32.43.64.1-.43-1.38h-.43l.11-.64.75.42.21-.74-.64-.11Zm-1.07-50.63.64.64-.32.32.53.21.11-1.17-.53-.22Zm.43-11.2h.42V9.49h-.42Zm.21,67.16.53-.21.22-1.18-.54-.42-.42,1.17Zm0,1.17.43-.42v-.43l-.54.32Zm1.17-17.91h.54l-.32-.64Zm3-51.16V9.7l1.17-.21.21.64-.42,1.06v.86l1,.21L390,9.17,388.78,9Zm1,12.15-.64.11-.22.32.32.53.54.21H390l-.1-1.92-.22-.53-.85-.64-.32.53.43.86Zm.42-13.75.32-1-.53-.43-.21-.64.53-.21L390,4.8l-.32-.75h-1.06l-.11,2.13.64,1Zm-.85,10.76h1l-.11-.63L390,16l-.74-.21-.64,1.28-.11.64Zm0-3.83,1-.86h-1Zm.85,63.32.32-.22-.21-.74-1-.64.53,1.17Zm.32-9.28-.32-1.6H389l.32,1.39Zm-.74,2.77.21-.64-.43-.32V71Zm0,3.52h1l.21-1.81-.21-.53-.43.21-.53-.21Zm4.26-62.57.21-.75h-.74Zm1.07,54.15-.43,1.17-.32,2-.32.53h.75l.42-.21.22-.43.21-3.09Zm-.43-52.77.11-.53-.32-.64-.11.64Zm-.21-7.46.64,1.6h1.38l-.64-2-.53.21Zm0,9.06,1.06-.53.32-1.07.11-3.62.53-1.28-1.17-.21-.32,1.81.21,2.35-.42,1.91Zm.42,63.22h.43V77.6h-.43Zm.22-61.62h1V16.2l-.22-.42-.64.1-.21.43Zm4-1.6v.64l-1,1.18.21.64v.85l.64.32h.64l.75-.32V17.8l-.75-.1-.53-.32.21-.43,1.07-.32.53-1.71V13.64l-.32-.32-.64-.21V15l-.21.32Zm-.11,57.67-.11-.85-.32-.53V72.7Zm0-61.4,1-.64-.43-.42-.74-.11V11Zm.75,58.63.21-1-.85.22-.11-.64v.64l.32.42Zm-.64,1.39.64.32.21-.32H400l-.21-.54-.53-.21-.32.43Zm.21-63,.11.64,1,.53v.85l1,.11.32-1.17-.75-.32-.21-.64.64-.54-.11-.42-.43-.43-.53-.1-.53.32L399,8.1l.64-.32-.21.53Zm.43,74.19.74-.11.43-.32-.75-.42-.64-.11-.21-.21.21.64ZM399,6.61l.64-.11.64-1V4.8l-.64-1v.64l-.42,1.38Zm.86,61.72-.22-2.13H399l.43,1.81Zm1-56.6.21-.22-.43-.42ZM403,78l.64-.21.42-.54-.1-.64-.54.22-.21.53Zm.74-7.89h.64l.43-.21-.43-.53-.42.21Zm0,2.13h.86l-.11-.64-.53-.1Zm0,10.88h.64l.43-.22-.21-.42-.22.42-.1-.64-.54-.1ZM405,11.94l-.42-.53-.64-.32.42,2.34,1-.53-.1-.64.53-1-.53.21Zm-1.06,62.89,1.06.43-.42-1.81-.43-.32-.21,1.06Zm.85-65.13-.64.21h1.17L405,9Zm2.77,1.81.21.54.43.32.53-.11-.21-1.17-.43-.43-.21.53ZM407.86,79l.85.43-.32-.75Zm1.39,3V81h-1.39l.32.54Zm-1.39,1.92h.64l.32-.32v-.64h-.64l-.32.32Zm.21-8.42.54,1,.1.64.75-.21.43-.64-.22-.75L410,74.3l-.32-.43L409.14,75l-.43.32Zm.22-68.86,1.17.53.11-.42-.75-1-.32.42Zm0,11.41,1.38.31L409.46,17l-.75-1-.32,1.39Zm.53,54,.43-.32-.54-.43Zm0-63.11.75-.21-.11-.64Zm.85,5.55,1,.32-.1-1.28-.22-.43-.42-.21-.22,1Zm.54,56.81.32-.32-.43-.64L410,71Zm.21,4,.11-.43-.32-.32Zm.85-2.56V72l-.85.11ZM413,75h.64l-.43-.53Zm.21-3.51.64-.22.32.43.53-.21.32-.64-1.38-.22-.54.11Zm.43-54.15.32-.54.64-.21-.22-1.17-.42-.22-.64,1.07-.11.64Zm-.22,46.47.11.54h.64l-.21-.64Zm0,8.85.11,1.17.32.43,1.49-.21-.1-2-1.18.32Zm.43-4.48-.11.64.32.64.54.43.32-.43-.11-1.17-.43-.32-.21.53Zm0-56.71,1.17-.42-.42-1.18-.43-.42-.21,1.38Zm.11,64.71h.64v-.54h-.64ZM414.36,66l.11.75.32.43.11-.54.32-.32.1-.53-.53.11Zm3.41,8.11h.54l-.11-.43-.43-.21Zm.11-6.72.43,2.56-.43.42v.54l.32.42.53.22V70.25l.22-.54h.53l.85-1.38L419.05,68v-.85h.86l.32-.75-.32-.43-1.6,1Zm1.6-2.13-.43-.32-.32-1.07-.32.54V65l.43.32Zm-1,13h.53l.64-.42v-.64l-.42-1-.54,1.28ZM419,18.33h.32V18H419Zm.74,5V21.53h-.64l-.1.64.21.75ZM419,70.89v1.38l.42-.32.11-.74.43-.43h-.54Zm.74-59.16.43-1.28-.43-.32-.32.42-.1.75Zm.64,69.82v-.43l-.53.11Zm3.31-64.92V15.56l-.43-.32-.21.54.1.64Zm-.22,7,.11-.63.43-.22.1-.64h-.64L423,23.34Zm.22,43.71.32,1.81,1.06.53L424.7,68l.32-.64-.74-.21Zm.74,8.63.54-.21-.11-1,.64-.32.11-.42-.54.1-1.38-.74.21.74.64,1.07Zm-.53-14,.43-.43.1-.74-.53.53Zm0,3.94.53.22h1.39L425.45,65l-.21-2-.86-.75-.42.54-.11.64.32,1.81Zm1-45.41h-.64l.32.32Zm-.64,38.7.11.64,1,.64.32-1.6-.64.21ZM428.33,35l1.06.64.54-.32-.75-.85v-.74h-.64Zm.21,37.74h.75l.21-.75-.75-.21-.1.53Zm.21-44.13h1l-.42-.53H429Zm0,18.12.54.43.1.53.43-1L429,45.3l-.22.64Zm.75,10.23-.53-.21.21.43ZM429,65.24l.21.53h.75V65h-.54Zm.21,5.11.21.54.43-.11.11-.64Zm1-37.84-.11-.64-.74-.1.32.53Zm-.21,5.12-.64-.32.21.53Zm-.43,5.54h.64l.21-1.17-.85-.21Zm0,17.7.85-.32h-.64Zm.43,6.5.42-.53h-.64Zm.64-3.09-.22-.64v.75Zm2.55-15.56.75-.43h-.53Zm.11,2.34.21.53.54.22.32.42-.32.54-.54.21.86,1.17.74.21.43-.32-.53-1.38-.75-1.17-.43-.32Zm.21-29.31h1l-.1-.64h-.64Zm.43,21,.21.53-.21,1.06.43.32.1.54-.53.42-.43.75.43.43.53,1.06,1.07-.74-.85-1.39,1.06-1-.64-.32-.42-.53-.11-.64.32-.64h-.53Zm-.21-4.06.85,1.07.53,1.07-.21-1.39.21-1.38-.74-.54-.43.43Zm.21,27.08.43-.21.1-.54-.42.22Zm.43-30.49.32-.21-.22-.53.64-1.6h-.74l.1.75L434,34.86Zm-.22,6.51.43-.22-.43-.32Zm1-5.12v-.43l-.53.11ZM437,52.23l.11-.74-.43-.22.11.54Zm1.6-1.6.53-.32.32-1.59-.53.1-.53-.32.32.75-.11.64Zm0-4.26v1.49l.75.11.42.43.43-.11-.11-.53.64-.75.11-.64-.64-.21-.32.53-.64-.11Zm.21,5.22v.64h.86l.64-.21.32-.53-1.39-.11Zm.43-17.27.53.32,1.07-.1-.21-.64-.54-.21-.53.21Zm.53,6.29v-.53l-.32-.21Zm-.32.64.11.54.64.21.43-.75L440,41Zm0,3.73,1,.22-.21-.64-.64-.22Zm.32-16,.43-.21v-.21h-.43ZM440,39l1,.43.42-1.17-1.17-.64-.11.75Z"/><path class="cls-1" d="M463.72,15.78l.64-.22.64-1-.42-.42-1.82-.43.43-.32h1l1-1.7,1-.86.64-.21.53-1.07.53-.32h.75l.32,1,.64.22-.11-.64-.64-.75.75-1,1.17-.85,1.07-.32.53.21.32-.42.11-.86,1.17-.21L475,5.12l2.14-1.39,3.73-1.17,1-.75.85.11,2-.43.54.11.53-.21.85-.75h5l1.6-.64,1.28.32h1.28l.64.21.43.43.21-.32L497,0h.75l.32.43v.74l1.17-.53.53.21h2.35l1.38.54.11.85.53.32.32-.43L504,1.6l.1-.64,1.07.64,2.45,1,.43.42,1.17-.85.32.54,1.07.63.21.64.43-.32.1-.42,2.13,1,.22.53h.74l1.18.43.85.64,1.17.32.22.85L518.94,8l1.07.64.42-.42,1,.85,1.18.43.64.74h.63l.11.64h.64L526.72,13l-.32.43,1.07.53,1.6,1.82-1.17,1L529,17.91l.43-.53.11-.86.63.43v.53l.64.32.86,1,1.81,2.88v1.28l-.75,1.7-1,.64-.64.11-.74,1L527.9,27.4l-1.18.21-1,.85-1.17.64-1-.21-.74,1-3.1.74-.53.86-1.92.42-.42-.74-1,.74h-.75l-1.28-1h-.74l-.64-1.17-1.71-2L509.77,26l.64-.43-.42-.21-1.18.64-1.59-1,.1-.64.32-.43-2.45-.32L503.8,23l-1.06-.75h-1.39L499,21.11l-2.67.42-3.84-.1-2.45.53-.74-.11-1.18.75h-.53l-3,1.06-1.39-.42-.21.53.21,1.07L480.89,26l-1.39.21.32.22.11.53-1.39.64v.85L478,29.63l-.75,1-1,.75-1,1.49-.1-.32-.64,1.07-.43.32-.75.1.22.75.53.32v.75l-1.39-.22.43.64.11.54-.43,2.66.11.75-1,.74.74,1.71V44l-.53,1.28.43.86.32,1.28.64,1.17-.43.74.43.86-.32.53-.54.21.64.64-.32.64-1.27.54.42.42H473l.21.54.53.21.43-.21.43,1v.64l1.38.22.85.74,1,1.6-1.06.22.43.53h1.38l-.21.75-.64.1-.32.53h1.28l2.45.75,1.39,1.39.21.64.53-.22.64.22.21.64-.64.21-.21.64.21.64.43-.32.53-1.07,1.18.11,4.47,1.81,2,.11.53.42.85.11.64.43,1.6-.86.75.11.53.75.32-.54.86-.53.63-.11.22.54v.85l.53-.32.11-.75.32-.53,2.24-.11,1-.63h.63l.11.53,1.39-.21.42-1.18.75-.85,1.17-.53L509,63.21l.74-1.06.32-1.28.64-1,.64-.32.22-.75.64-1.06,2.34-2.24,1,.32.43-1,.74.21.75-.21.43,1.17.53.43,2.45.1,1,.64H523l-.53,1.18.11.42,1.6-.74v.42l-.75,1,.85,1.07-.43.42.43.43h.53l.43-.43-.11-.74-.74-.75.32-.64.64-.32,1.28.54.32.32-.22.42,1.5.21.53.43-1.07.53.43.64,2.13,1.18.53-.54-.1-1.28,1.81,1.82,1.17.64L532.8,66l-.53-.21h-.75l.11.75.64.21-1.18,1.17-1.28-.32-.53-.32-1.17,1.6.32.64.11,1.28-1.07,2.35-1.49,2-.86-.11-1,.54-.33-.75.11-.64-.53-.21-.21.53v.75l.21.53-.21.53L522,77.5l-.21.64L520,77.92V75.36l.21-1.38-.43.32.11.64-.32-1.07.43-1.6-.11-1.38-.85-2.56-.85.53h-.75l.43,1.07.42,4.26,1.17-.42-.1.74-.64.11.21.74-.42,3.1.21.85-.53.43-.75,1.06-.75.11-.53,1-.75-.22-.32-.32-.32,1.18-3.62,1.7h-1.71L508.6,83l-.32.64.11.53-.53.11-.75,1.06-1.28.32-1.71-.32.11-.53.43-.42-.75-.22-.43.64v.53l-1.91,1.18-.86-.22-.53.11-.75-.21.11-1.07-.75-.74-.53-.22-.1.54.42.42.21.64-1.06.75-1.17.42-1.28-.1-.64-.32-.11-.64.32-1.28-.64.21-.21.53.1,1.07-1.06.64-2.67-.21-1.6-.64.11-.43.43-.21-.54-.75-.64,1.39h-2.55l-1-1.39-.32.21-.11.54-.53-.11-.22-.64-1.17.32L481.21,85l-.54-.32.64-.43-.64.11-1.17-.64-1,.21-2.34-1.38-.86-1.07-.64.11L473.53,81l-.75-.1-.1-.53L473,80h-.75l-.21.53-1.28-.64-.43-.42-1.28-.64-.1-1.39-.22-.43-.85.75-1.06-.64L465,75.36l-1.06-.74v-1l-2.14-1.07V72l.43-.53-.64-.21-.64.1-.53-.21.21-.75.54-.53-1.28-.21-.64-.32V66.62l.64-1.28-.43-1.17-.85.54v1.38l-.32.43-1.17-.75-.11-1.7-.43-.32-1.06-.32v-.86l.21-.53-1-.43L455,61l-.21-1.06.11-1.49h-1.07l-.53-.22-.32-.74.32-.32.64-.11.1-1.39-.32-1.06v-.85l-.74.21.21,1.28-.11.74-.32.54-.32-.32-.32-1.07-.1-3.3-.43-1.18-.42-.42.21-.75-.53-1.81.53-.21h.85l-.53-.22-.64-1L450.72,45l.21-3.3.75,1,.53.32.21-.43-.63-1.81-.86-1.17.43-1-.21-.53.1-1.07.85-2.35-.1-1.38.53-.21-.32-1.39.11-.75,1.28.11.74-.32-.1-.32.53-.43-.53-.1-.64.32h-.86v-.75l.86-.53h.74l-.1-1.49.21-1.28.43-1.07.64-.85.42.42-.1-.74.32-1.28.42-.64,1.07-.75v-.74l.64-.75.21-.64.64.21.75-.21-.11-.85-.32-.53.75-1,1.38-1.28.21-.64,1.07.32.32.42.21-.42ZM450.83,41.15h.32v.42h-.32Zm2.66,10.66-.21-.64-1.07-.43.64,1Zm-.75-12.69,1,.21-.1-.64h-.54Zm.22-6.39.42.64.75-.11V32l-.43-.64-.53.85Zm0,3.09h.53l-.53-.43Zm0,.64h.42V36H453Zm.53,5.65h.75l.53-.22-.11-.53-.32-.21-.32.53Zm0,4.15.53-.21v-.43l-.53-.1Zm1.07,2.35.64-.11.1-.64-.64.11Zm.53-13.75.32-.43v-.64l-.53-.32-.11.85Zm0-7.25.43-.43-.43-.42-.21.42Zm.43,9.81-.22.53.43-.32Zm0,5.33.42-.32-.42-.32Zm1.6,15.56.74.32-.21-1Zm.31-17.91.75.85-.11.64h.64l.32-.32-.53-1.06.53-.86V39l.64-.21.43-.42v-.54l-.43-.21-1.81,2.24Zm1.82-15-1-.21-.64.21,1.28.43Zm0,6.72-1.6,2.34.53-.21.32-.53.75,1,.64.22.53-1v-.64l-.85-.75-.11-1.28-.85-.74-.32.53v.64l.42.32Zm-1.39,5.11,1.6-.32.53.32v-1l-.64-.21-.85-.85-.43-.11.22.53-.54.86Zm.64,11,1.39-.32.53-.85-.32-.43-1.28-.32.21-1.38-.21-.64-.64.32-.32,1.06.53,2Zm1.17,11.41.54-1.17v-.75l-.43-1.07-.43-.21-.53.11.32.42.43,1.39-.32,1-.64-.11-.32-.53-.32.43-.11,1.38,1.39-.85.1.85-.21,1.28.53.32v-.75l.54-.85-.32-.43Zm-.85-15.88-.11-.64-.42-.32-.32.42.21.43Zm-.75-21.86,1.39,2.56.32-2.34-.32-1.18-1.07.54Zm0,8.1,1.28-.42h1.07l-.21-.75-.43-.53-1.17-.32-.54,1.49Zm0,33.05.54.21.64-.21v-.85l-.75.32Zm.22-13.65.21,1.28v1.92l-.21.75.32.21.64-.32.53-1.17.64-.21-1.07-1-.32-.64.22-.64.53-.22-.11-.53-.64.32Zm0,5.12.42,1,1.18.32V54.68l-1-.32ZM460.63,26l-.74-.85-.22.53.22.53ZM460,41.36l.43-.85h-.75v.42Zm.43-2,.75-.32-.54-.1Zm2,3-.95.43h-.64l.32.64.53.42.53-.32,1,1h.43l-.11-.32.21-.42-.53-.54-.21-.53Zm.75,4.48-.32.64-1.17.21-.53.53.63.11L463,48l.74.11.22-1.07Zm-1-20,.43-.32-.22-.43Zm.21-5.87.22.64.64.11.64-.21v-.54l-.64-.1Zm0,35,.54.64.21-.75.53-.43.64.22.11-.54.53-.32-1.06-.53-.64,1-.43.32Zm.11-28.14,1.17.21v-.75l-.53-.42-.32.53Zm.43,6.5.21-.43L463,32.51l-.32.54v.64Zm.42-7.68-.1-.64-.32-.32-.11.54Zm0,15.57V40.93l-.42-.21-.11.53.21.43Zm-.42,8.1h.74v-.75l-.53-.21-.21.42Zm.42,7-.42-.32.1.54Zm.22-27,.53-1v-.74l-.53-.22-.43,1.39Zm-.43,21.64h.43l.1-.32-.53-.21ZM463.4,61h.54v-.53h-.32Zm1-25.9-.42.43-.32,1.92,1.17-.54.32-1.28-.21-2.13.1-.64-.64-.32-.32,2Zm-.74,6.61.1.75.43.32.43-1.18H464Zm.1-2.13.43-.43,1,.43.21-.75-1.49.21Zm.43,6,.53-.43-.1-.43-.86-.21v.75Zm0,4H465l-.21-1-.43.43Zm.21-9.06.54-.22-.32-.53Zm.75-14.93-.53-.42v.64Zm-.32,33.26.21-.21-.42-.32ZM466,37.2l.54.11.42-.53h-.74Zm.22,4.91.53-.32-.43-.43Zm1.38-18.66-.21-.53.21-.43-.64-.42.11,1.17Zm-.21,22.6h1.38l.32-.43-.42-.53-.54-.11-.53.43Zm.21,11.41.75.85.21-.53V57l-.64.11Zm1-6.51-.21-.42-.43-.11L468,51.7l-.32.64,1.17.43.43-1.39.64-1.17-.64-.22-.32.64Zm1-7.46h-.75l-.42-.32-.11-.42.32-.43-.64.32-.11.64.86,1,.53-.11Zm-1.17-12.36.1,1.28L467.88,34l1.17.86-.32.74v.64l.64.11.43-.53.43-1.39-.64-1.06V32l.32-.53.74-.11.11-1.39-.53-.42v.74l-1.39.75Zm.21,30.48-.64.75V63l1.39-.11.64.32.74-1.81-1.28.21Zm-.43-46.26.43-.21-.43-.32Zm0,1.81,1-.42.22,1.17.42.42.43-1.06-.21-1.17-1.18.1-.42-.21-.22.43Zm0,50.74,1.39.43-.21-.75-.54-.42h-.42Zm.22-7.67.64-.43.1-.74-.21-.64-.53,1.06Zm.21-5.76.53-.43.22-.74-.54-.11-.32.64Zm.21-39.55.75-.1-.21-.64-.75-.22v.54Zm.11,10.24.64-.22.21-.53-.85-.64-.32.75Zm0,24.09.75-.11.53-.32-.53-1.06-1.07-.54.11,1.39Zm-.11-21.32.11.74.43.86,1.17-.43-.11-.75-1.06-.74Zm0,30.17.54.53.64-.32.21-1.39-.43-.42-.53,1.17Zm1-16.53-.1-.74-.54-.32v.85Zm-.21,29.64-.43-.75v.32Zm.64-33.58-.21-.53-.64-.11.21.64Zm0-10.45-.21-.21.32-.43h-.75l.21.64Zm.75,28.57-.22-.43-.42-.21.1.53ZM472,58.63l.21-.64-.64-.32-.1.64Zm.64-32.41H473l-.22-.42-.32.21Zm.1-5,1.07-.32-.32-1.38-.32-.43-.53,1.07v.53Zm-.1,7.14.42-.21.11-.53h-.53Zm.1-12.36,1.39.43.43-.43-1.28-.32ZM473,32.83h1l-.22-.53-.74-.21Zm1-20-.22-1.38-.32-.43-.32.53v.54l.32.53Zm-.75,1.39h.43v-.43h-.43Zm1.6,4.9-.32-.64L474,18l-.75-.11.11.64.85.53Zm-1.6,48.18,1.81-.53V66l-.42-.21-.32.43-1,.42Zm1.17-1.7-.21-1.92-.75-.64-.1,1.17.53,1.17Zm-.74-35.39.53-.32-.11-.43-.42-.32-.22.53Zm-.22,1.17,1.39.11-.11-.75-.53-.21-.53.21Zm0,38.48,1.18.43v-1l-.75.11Zm1.82-8-.43-1.6-.64-.11-.32-.53v.74l.43,1.28.42.32ZM474.6,27l-.11-.53-.53-.11.21.43Zm.64,26.54h-1.07l.32-.42L475,53Zm.1-24.73-.21-.74-.53-.43-.22.53.22.53ZM475,21.85v-.53l-.42.11Zm1.39,59.8.75.11.42-.64-.64-.21-.32.21Zm.32-14.92.74-.21.22-.54-.75-.21-.11.43Zm1.06-58.42.11.32.64-.1.32-.32.11-.54-.75.22Zm.54,13.33.64-.32.1-.64-.32-.64-.64-.32-.21.64Zm.42-4.9-.64.21.32.32Zm-.64,53.93.43,1.39.53.32.22-.43.42.11-.21-.75.11-1-.32-.53-.43.53Zm0,6.29.54-.1.32-.32-.86-.22Zm0,6.29.43-.42-.21-.54-.11.54Zm.22-17.91,1.38,1.18-.21-1.39-.75-.74-.32.32Zm1,8.43-.11-.64-.43-.32-.1.64Zm-.22,6.5.32-.21h.54l.21-.54H479Zm0-70.46.64-.32-.42-.43Zm1.28,12.68h.32v-.85h-.32Zm3.09.32h-.74l.42.22Zm-.21,45.73.53-.32.22-.53-.32-1.17-.43-.54-.53-.21.42,1.92Zm-.32,2.67,1.28.85v-1l-1.07-.32Zm.53,8.74.54-.43.21-1.17-.53-2H483l.21.75-.11,2.24Zm-.42,3.3.85.22.32-.54.64-.1v-.75l-1.17.85Zm.42-76.53h.64l-.64-.43Zm0,14,.43-.21.11-.54-.43.22Zm1.39,54.47-1.39-.21.22.64.64-.11ZM484.19,8.1l.64.11.21-.32-.32-.11Zm.21,7.68.54-.11.21-.43-.32-.32Zm0,64.7.22.85v-.64h.64L485,80l-.21.43Zm1.18-11.83.42-.21-.42-.32Zm.85,2.77.53.21.22-.53ZM488,11l-.11-.53-.53-.22v.54Zm-.64,66.2.53-.32.43.64-.22,1.81.86-.21.53.85h-.75l-1,.53.43.21-.11.64-.32.32.64.75.11,1.28h.75l.42-1.17-.53-.43-.21-.64,1.38-1-.32-.64-.53-3.09-1.92-.21Zm.42-4.91.75.11-.11-.64-.32-.32-.21.43Zm1.39-2.56.32-.85-.53.32Zm.32,16.1v.43L490,86l-.22-.42ZM494.1,84l.54-1.49-1.18-2.24,1.6.21-.21-.64-.75-1v-.74l-.53.32-.64,1.81-.32-.43-.53-.1.42.53,1.18,2.88Zm-1-74.3.54-.32.21-.53-.75-.22-.21.54Zm0,62.15.22.53h1.28l.21-.32v-.64l-1.17.43Zm0,6.07.54-.32.21-.64-.43-.42-.32.53Zm.75-7.25.21-.64.32.22.22-.64-.75-.32-.11.85Zm.43-53.29.64-.22v-.42l-.32-.54L494.1,16l.22.75Zm.32,58.94.1-.42-.32-.54-.1.64Zm2.24,1.18.21.64,1.17-.22.32.86.53-.32,1.07.42v-.64l-.43-1.06-.42.21-.32-.32v-.75h-.64l-.11.75-.43.43-.42.1Zm.53-6.08.53.43.22.64.42.32.21-1.39-.42-.32h-.64ZM499.54,74l-1.17.21-1,1,.42.21.22.43.64-.32L500,76l-.11-1.27-.32-1.07Zm-1.17,5.76-.11-.54-.64-.1.21.74ZM499,2.56h-.64l.32.32Zm.42,79.73-.85.54-.21.64,1,.53H500l-.22-1.49-.42-.43Zm-.85-13.43.64-.32h-.43Zm0,11.62.85.21-.21-.74h-.43Zm1,1,.53-.11.11-.64-.53.22Zm3.63-77.92.21-1.17h-.64l.11.74Zm-.43,2.77.21.64.53.21.22-.85-.43-.11Zm1.81,70.89-.43.32-.64-.11-.21.53.11,1.82-.64-.22v.64l.64,1.71-.21.74.85.22.53.42v-.74l-.32-1,.11-.64.85-.11.32-.53-1.28-1.07-.21-.53.1-.75h1l-.42-1.81v-.75l-.54-.21-.32.53.43,1Zm-.64-59.27v-.43l-.53.11Zm-.53,50.42.53.11.43.42h.74l.22-1-1.5.11Zm0,5.33,1.28.75.21-.75-.11-.64-.42-.53-.64-.22-.32.54Zm1-1.81,1-.75v-.85h-.75l-.53.53-.11.53Zm0-7.68.53.43h-.53Zm1,9.49.21-.64-.21-.64-.22.64Zm3-1.39.22-1.06-.75-.22-.64.22.64.74Zm-.64,5.23,1.07.53.74.85-.53-.21-.64.11.22,2.34,1.27.11.43-.32-1-3.73V76.11l.21-.53-.42-.32-.22-.64,1-1.81-1.17-.43-1,3.2-.1,1.28Zm.86-54.9v-.75h-.64l.1.64ZM508.28,66l.32.54.11,1.28-.21,1.49.95.74.54-2.55-.54-.22-.1-1.81-.54-.32-.21.53ZM510,17.91l-.11.74.53.22-.21-.64.11-.64.32-.43-1.6-.64.21.64.43.32Zm0-4.16-.11-.53-.43-.22-.32.43.22.43Zm.42,57.88v-1h-.64l.22.64Zm0,11.2h.43v-.32h-.43Zm1.92-62.58.22-.1.53.42.85.11.21-1.17-1.59-.22-.32.54Zm.22,47.65.21-.64-.53-.1Zm0,1.81.21-.21-.43-.42Zm0-58.73.42.53.64.11.64-.32.32-.43-.32-.53.11-1.28-.64.43-.53,1.06Zm1.06,67.9-.11-.53-.53-.64.11,1.07Zm-.64,3.2.64-.21.53-.54-.21-.64-.74.86Zm.43-19.72.53-.75h.32l.11-1.28-.75-1.7-.42-.32.21,3.41Zm-.21,3.2.31,1.6-.31.53.42.43.64-.32.32-.64-.53-.43V66.3l1.06-2.13L514.25,63h-.53l.32,2-.21.43Zm0,4.9.85-.11.53-.32V68.54l-.85-.21-.22,1.49Zm.21,7h.32l.11-.54h-.43Zm.32-4.69.85-.22-.21-1.38h-.64l-.22.53.22.53Zm-.11,2.13V76h1.17l-.21-1.17H514Zm.53-60.34.64-.42-.85-.75v.64Zm0,9.17h.75l-.11-.43-.42-.31Zm.22-4.9,1.17-.22-.21-.53-.75-.21-.21.42Zm0,11.08.42-.32-.42-.32Zm3.94-17.58-.64.21.32.32Zm-.42-2.56.21.64.43.32.74.1v-.64l-.43-.42-.42-.11ZM518.09,66l.64.22.74-.11.54-.43.21-.53-1.17.21-.32-.63.1-1h.64l.75-1.18h-.53l.32-1.92-.54-.42-.42.53-1,.21-.21.86.53.42.21.54L518.3,64l-.42.21.42.43-.21.53Zm0-44.34.53.21.64.86.64.1-.21-.74-.43-.54-1.17-.64Zm.21,4.58.53-.42h-.31Zm.22-12.79.85-.11.53-.42.53-.11V11.62h-.74l-.22.64-.74.64Zm1,45v-.75h-.64l.11.53Zm-.21-41v.95l.64-.21.75-.74-.75-.11Zm1,51,.21-1.07-.53-.1-.11.64ZM520,23l.64.21-.43-.64Zm.64,46.79.42-.53h-.64Zm2.13-47.75,1.17.42.43-.85L523,21.21Zm1.06,48.18-.53.21L523,71v1.82h.64l.85-.64.54.1.1-.74-.53-2,.53-.85-.21-.75.21-.74-.32-.43-1.27,2.35v.53ZM524,18.33l-.21-.31-.53-.11.21.64Zm-.74,5.12h.63l-.42-.85Zm0,37.74v.42l.42-.21-.21-.43Zm.21,4.15.85-.85.43-1.28-.22-.64-.53-.42-.64,1.17-.1,1.28Zm.53,1.82.64-1.07H524l-.21.53Zm.43,6.82.64-.21.21-.54-.21-.64h-.64l-.21.75Zm4.16-10.23-.32.64.1,1.91h1.18l1-1.7v-.85l-.53-.22-.32.54-.43-.11Zm.74,4.15.75.22.85,1h-.43l-.53-.32-.85-.11Zm1.81-48.18.43.21.11-.42-.32-.22Zm.22,43.81h.32l.21-.53h-.32Z"/><path class="cls-1" d="M599.64,60.33l.32.11.43-.21.1.42-.32.54.54.42h.85l.21,1.07-.21.43,1.17.42.53.43.22.64-.32.85.42.32.75-.11.53,1.18-.1.64,1.06.53.11.64h1l.42.53.75,1.92.64.32v1l2.56,2.45,1.38,2.67h.54l.1.74,1.6,1.92-.1.64.85,1.07.75.21.1.85L616,84.75h-.53l-.86.63-1.06-.1-.54.32-1.17-.54-2-.31-.54-.32-.32.42.22.75H605.5l-.53.32-.75-.11-1.06-.64-3.41.43h-5.33l-1.5-.22-.42-.95h-1.28l-1.6-1.6-.64-.22-1.07-2.34-1.17-1.49-.53-.32-.32-1.71-1.81-1.39-1.5-2.13-.32-1.38-1.06-.64-1.6-1.71L579,68.44l-.11-1.5L578,64.71l-.85.21-.54-.11-.85-.85-.53-1.07-1-.74.11-.64-.22-.54-1.81-1.49-.11-.64L573,59l.43.43.42-.22-1-2.56-.53.32-.21.54-.43.32-1-.54.32-1.17H569.9l-1.17-.43-.54-.42-1,.85-.42,1.17h-.64l-.43.22-.11.85-.74,1.17-1.49,1.07-1-.22-.22.54v.85h.54l.64-.32v.85l-.54.32.32.32.64.22-.21.64-1.17.53,1,.64-.11.64-.43.32,1,1-.21.74-1,1.39-.21.64.42.1.43-.53.53.11v1.28l-.42.64-.54.21.11.64.64.11-.43,1.17.64.85-.32,1,.32.53-1.17.64.75.75.42,1.28v.75l-1.06.53-.32.43.42.32.43-.22.32.32-1,1V85l-2.56.53-2.56.21-2.34-.53-1.17.75L553,85.49h-.64l-1.07.43-.32-.32-2.45-.43-.21-.64-.53-.32-.43.32v.75l-.21.53-1.28-.43-1.28.22-.64-.43-.11-1.38H543l-.86-.54.11-1.17-.53-2.45,1-.11-1.18-1.06.32-1.07.11-1.28,1,1.81.32-.42-.64-1.6.21-.54,1-1-.42-1.07.42-1.17H542.4l.1-2.77.64-1-.21-.64.64-1-.43-.54-.21-.85.53-.43.32-.74-.64.21-.53.85-.64.11V64.17l1.17-.64-.42-.64-.64-.1-.54-.43.11-.75.32-.53.64-.32-.85-1,1.28-.74.32-.64-1.18.64-.21-.64.75-2.24v-.75l-.75-.21.21-1-.42-1.81.1-.64.54-.43-.64-1.07.1-2.55-.42-5.23.21-1.6.64-1,.43-.32.64.22V39l.42-1.27-.32-.11L543,38l-.11.64-.75-.11-.42-.53.1-.75.54-.42-.43-.64.21-1.92-.21-.64.64.21v-.74l-1.07-1.39.11-3.84.53-1.92-.85-1,.43-.53-.22-2,.43-1-.43-1.18.64-.64-.74-1.06.1-.64h1.18l.42-.21-.21-.75-1-.43.21-.42.43-.22-.85-1,.21-.74-.21-2.67L542,11l1,.64.32-.64-.11-.53-.53-.43h-.85l.21-.75-.32-1.91.11-.75,1.17-.32-.75-1.6-.42-.43.64-1,1-.63,2.34-.75,1.39-.21.21,1.38.85-.53.11-.64,3-.21L552,2.77l.64-1.06,3.84.64.85.74.53-.32.64-1.28.43.32.21.54,1.39-.43.32,1,1.38-.32,1.6,2.34-.32.75-.64.43.11.64-.32,1.7.11.64.42.11.11.64-.85.64,1.6,1.7-.22,1.28v3.84l-.42,2.34.42,3.42-.42.53.42.85-.21,1,1.17,1.92,3.73-1.71-.21-1.17,1.39-.21V23l.64-.32.85-1,.53-1.28,1,.21.21-.53V19.4L574,19l.32.43.32-.43-.11-.85h.75l-.11-.42.43-1.07,1-.85.64-.22.53-.64.85-1.81h.86L582.16,10h1.17l.32-.43-.53-.53.21-.75,1-.42,3.09-4.59,1.07,1,1.7-1.91.64.1.43.43.21-.32-.1-.64,2.66.32.11.32,1.38-.75.85.11.54,1,.42-.11-.21-.85.64.32.32.53,1.17-.42.64.1.32.43.86-1,2.45.53.1.64,1.71-1.17.53.32.32.53,1.17-.85,1.39.64v.53l.43.85.74-.21-.64-1.38.64-.43.64-.11,1.81.54H613l-.53,1.38.64.32h.75l.53.43L613.07,6.4,612,7l-.1.74-.64,1-1.81,1.49-1-.64.74-.74-.42-.32h-.64l-.43.53.11.75.85,1-2,2.77-.74-.22-.64.86v1.17l-.53.32H604l-.64,1.39-1.17.32-.75.74.32.75-.21.53-.53.32-1.39-.11-.64-.32-.53,1,.53,1-.85,1-.64-.21-.32,1.28.1.74-1.81,1.18-.32-.43-.64-.32-.21,1.07-.75,1v.85l-1.7.11-1.07.64-.21.63.75-.32.42-.42.11.53-.64,2.24-.85-.32-1.28.11-.43.21-.75,1-.85,3.09h-.64l-1.6-.53-.1.42,1.17,1.07.21.64-.53.21-2,.11-.85.53,1.17,1.18.32.63.11.86,1.28,1.06.1.75h.86l1.28,1.39-.43.74.43.43.64.21L588,46.37l1.39.64h.53l.32.53L593.35,50l-.43.64.11.64,1.49,1.82-.21.64-1,.74.75,2.45v.54l.64-.11.74-1.49-1.38-.64.53-.32,1.07.53-.75-1.7,2.66,2.55-.21,1.18.11,1.17.53-.11.32-.42.64-.32v.74l-.21.54-.75.74.53.21.86-.74.64-.11-.11.75Zm-57-38.9-.11-.54-.32-.21v.53ZM542.4,23h.32V22.6h-.32Zm.21,12.79.75.53V35.6l-.54-.1Zm0,18.86h.75l.42-.42-.74-.11Zm.11-24.62.42.11.43-.32-.53-.11Zm.42,15.14.54-1-.32-.43-.43,1Zm.75-23.35v-.74l-.53-.32-.11.74Zm2.24,17.27.1.85.43.32.32-.42.11-.64-.43-.32Zm.21-5.54.53-.11.22-.64h-.64Zm1.39,30.91-.75-.74h-.64l.21,1.59.43,1.39.64,1.07.43.21-.75,1.39.43.95V71l.74.43V67.8l-.42-.86-.54-.42.43-.22-.11-1.38.75-.11.85-.53-.1-.75-.64-.42-.54,1Zm-.43-18.87-.21-1h-.64l.32.64Zm.43,10,.74.86-1.17.64-.85-.11.21.75.43.42h.85l.75-.85L548.9,56l-.21-.74-.64.1Zm-.86,16.21-.21,1,.43.21.42-.21V71.63Zm1-66-.32-.64-.64.11.32.43Zm-1,13,.64.1,1.18-.53-.54-.85-.64-.11-.32.75ZM547.3,22l.11-.64,1.06-.21.43-.32-.64-1.39-1.17,1-.22,1.17Zm1,4.16-.32-.64v-.75l.53-.32-1.38-.21-.11.42.32,1.28.43.32Zm-1.17,17.16h1.28l-.75-.64.43-1h-.75l-.11,1.07Zm0,36.56.64.22.53-.22-.32-.64-.64-.32-.11.43Zm.21-30.49.75.11.42-.64h-1Zm.21,13.54,1.39-.42.32-.54-1.28-.1.11-.43h-.54ZM548.05,7l-.32.21h.53l.64-.43.32-.74-.64.1-.21.43Zm.21,30.16.75-.1.42-.54-.53-.21-.43.21Zm0,9.38.32.32.11.64.42-.21.11-1.07h-.64Zm.21,14.61.75.21L549,60.23l-.11.32-.21-.54-.32.64Zm0-33.69.54.43.21-.43v-.74l-.21-.43h-.32l-.11.64Zm0,7.46h.43v-.32h-.43Zm0,31.77H549l-.11-.43-.43-.21Zm.43-36.88.53-.22V29l-.42-.32-.22.64Zm.32,25.37.21-1h-.53v.64Zm.42-22.39.64.22.54-.43-.75-.43Zm.64-9.8.54-.22v-.64l-.54-.21-.21.53Zm.54,37.52-.32-.32-.43.1.43.32Zm.42,3.2-.85-.43.11.75.53.1Zm-.64-14.4.54-.21-.11-.53-.32.21Zm.86,9.81L552,59l.21-.75-.74-.21-.22.64Zm.1,6,.64.53-.64.22v.53l-.32.32,1.18.53V66.2l1-1.49-1.28.42Zm-.1-45.73.42.21,1.28-.21v-.64l-.32-.32-1,.64Zm1.17,11.09-.11-.54-1.06-.1.1.64.54.21Zm-.85,41.14-.22.64v.86l.43.42.85-.64.11-.53-.43-.21-.32-.75-.74.21Zm1.6-16.95-.22-.64-.53-.31-.21-.86h-.86l1.18,1.81ZM551.56,60l.11.43.53.11.22-.75Zm.64,1.92-.64,1.92.11.54.53.53L552,63.75l1.39-.64-.32-1Zm-.64,6.72L552,71l.64-.1V69.4l.75-1-1-.54-.22.32Zm.22-62.15.42-.64-.53.22Zm0,39.55.32.53.53.22.53-.22-.21-.85-.32-.32L552,45.2Zm0,33.05.85,1.17.53-.21-.1-.75-.64-.32ZM552,8l1-.1L552.84,7h-.64l-.21.42Zm0,1.18,1,.64.11-.54-.54-.42Zm0,33.9.85.42-.32.43-.1.74L553,45l.43-.32.42.22.22-1.39-.75-.21-.85-1Zm.43-37.74.1-.53-.32-.32-.1.42Zm-.22,10.34h1.5l.42-.53-1.28-.32-.42.1Zm0,5.12.64.1v-.64Zm1,11.4h-1l.22.54.42-.11Zm.64,7.57V39l-.21-.42H552.2l.43,1,.43.21Zm-1.17,10.77.21-.64-.64-.32.11.64Zm0-38.16.53-.32.32-.75-.1-.75-.43-.32V11l-.53.85Zm.75,16.52-.32-.64-.64.1.53.22Zm.42,29.31.53-.21.22-.53-.64-.32-1.28-1.71v.75l1,1.49ZM552.63,60l.64-.1v-.43l-.43-.32Zm.21-35.81L554,24l.53.22-1-2.35-.53.54-.32,1.17ZM553.59,77v-.85h-.75l.11.64Zm-.75,4.91h.32l.43-.64-.75.21Zm.32-49.78.54-1.28-.54-.32-.21.42v.75ZM553,75.15l.43.21.21-.42-.43-.21Zm.43-11.62h.74l.21-.42L553.7,63Zm.42-21.64.43-.32-.43-.32Zm0,8.85.75-.21L553.8,50Zm.75-2.13L554,48.4l.21.42Zm0,13,.21-.85h-.64l.11.53Zm0-2.77.85.22.11-.64-.64.1Zm.42,6.08.75-.53.21-1.28-.53-.22-.64,1.39Zm.54-3L555,61.4l.11.53Zm.64-10.76,1.17-.43V50h-1.07l-.74-.42Zm-.43-31.88.64-.32v-.53l-.53.21Zm.64,42.11.21-.85-.64.32Zm.32-29.74.43,1.17.64.22.32-.54-.22-1.17-.53-.32-.11.53Zm.43,5.12.74.64L558,38l-.64-.32-.64.11,1.07.85h.74V37.2l-.32-.42-.53-.22Zm.21,4.47-.21,1.39h-.43l.21.75.64.32L558,41l-.21-.75h-.86l.11.86Zm0-14.49,1.17-.22.22-.42-.54-.11-.64-1.07-.64-.42-.1.53.32,1.17Zm-.43-3.52.54.21.42,1,.43.32.21-.64-1.17-1.28Zm.22,25.37,1.38-.21v-.86l-.32-.53-.53-.32-.75-.11V48Zm-.22,15.88,1.6.43.22-.43-.11-.64-.53-.32h-.54l-.42.32Zm.22,7.36h.42l.22-.64h-.64ZM558,73l-.64-.21-.21.32.21.74.75.11.32-1.28-.43-.32Zm0-52.23-.11-.86-.32-.64-.32.54.22.64Zm0,40.61-.43-.43-.32,1.18.11.53.64.21.32-1.28.43-.42.21.64.75.1V60.65l.32-.53.1-.74h-.85l-.53.31-.54,1.18Zm-.64-51.59h.43l.21-.22-.43-.42Zm1,3v-.64l-.32-.53h-.64l.43,1Zm-1,2.35L558,15l.11-.75h-.75ZM558,54.47l-.53,1-.11,1.39.53-.11.32-.32.32-1.17V52.66l-.74-.11-.32.54.21.64ZM557.32,58l.21.64.75.75.64-.75-1-.75ZM558,30.7l.21-.75,1.07-1.81h-.75l-.53.32-.53,1.28.1.53Zm.11-13.22.1-.53-.64-.21.11.53Zm-.54,22.39h1l-.42-1-.43.42Zm0,42.21.64-.21.11-.64h-.75Zm.22-73.87.74-.32L558,7.78Zm1,13.75-.64-.75.1.64Zm-.43,53.94.32-.22.11-.53-.54.21Zm1.81-9.06-.85-1.5-.53-.21-.22.53.11.64.43.54.53.21Zm-1.38,2.77.32.53.42-.53Zm1-11,.1-.64h-.53Zm.21,4.9.42-.32-.42-.32Zm.74-14.18.54-.1.1-.64-.21-.43-.11.64Zm0,7.25h.54l.32-.32-.54-.1Zm.86,7.15.42-.22.11-.64-.53.22Zm.32,2.77-.22.53.64.43.22-.54-.32-1.28-.43-.32-.21.64Zm0,11.72.42-.1V77.5l.22-.43-.75.21-.21.54Zm-.11-25.69.75-.1,1,.64H564l-.22-.64-.53-.43h-1.07Zm0,1.92h.64l.43-.53-.11-.43h-.85V54Zm.11-4.16L562,51l.64.22.21-1.07-.64.11Zm.64-20,.32-.42v-.64l-.75-.86-.11.64.22.64Zm-.22,29.53.22-.21.53.1.64-.31v-.75L562.44,58l-.54,1.28Zm0-26.33.86.11.1-.64.64-1.07-.53-.32-.85-.1-.22,1.38Zm.22-6.39v.42l.42-.21-.21-.32Zm0,16.2V45l1.17.64-1.17,2.14v1.17l.74-.21L564,46.9l.53-.1-.21-1.28.1-2.35-.53-1.06-.53-.43L563.08,43Zm.42,11.83.75.11,1-1.71H564l-.32.64-.43.21Zm.22-14.82h.53l.21-.42-.53-.11Zm1.7,11.41-.21-1H564l.1.75Zm.43-2.35L566,50l.22-1.17h-.75Zm1,3.2.64-.42h-.43Zm.42-3.94.43.11.11.42-.22.64.64,2.88,1.28.53.32-.32L568,51.49l-.11-.86-.32-.53.22-.64,1-.85-1.82-.43Zm.54-4.8.21-1h-.53l.1.54Zm-.22-4.26h.86V38.8l.74-1.28-.32-.53-.64-.43L567,37.74l-.11,1.17Zm.22,7.67h1.38L568,45.3l.21-.64-1.28-.42.22,2.45Zm0,7.89,1.28-.32.1-.75-1-.1-.42.53ZM568,35.82l.53-1.07V34l-.53-.21L567.55,35v.54Zm2.13,8.84h.43v-.42h-.43Zm1.17,1.92v.64l.22.32.74-.21.54.11.64-.43-.11-.64-.43-.32-.21.64-.64.11ZM572,50l-.11.75.54,1,1.6-.21L573.2,50l-.53-.1Zm0-19.29.64.21.43-.21.32.21.32-1.49-.32-.53-.64,1-.43.32Zm.21,5.12.64-1.18L572,34v1.39Zm0,13.11.43.42,1.17-.53.22-.64-.64-.32h-.64l-.43.32Zm.86,6.93-.11-.75-.53-.21-.11.64Zm-.64-22.6.74.11.64-.22.86-.74.32-.54-.64-.32-.64.11-1,1Zm0,6.07.53.22.32.53-.64,1.81.21.54,1.18-.75.1-1.6.64-2.34h-1l-.1-.75-.43-.43-.43.32-.42,1.71Zm.42,4.16L573,45.2l-.32.42.53-.1,1.28.32.32-.54.64-.32-.21-.32-1,.32-.85-1,.21-.53-.21-.64-.11.54Zm0-16.41h.54l.21-.32v-.64l-.75.32Zm1.71,9.27.43-.43v-.74h-1.39l.43.64Zm.85-10.45-.85-.1.43.53Zm0,35.71h.43v-.42h-.43Zm.22-17.8.53-.32-.53-.42Zm.74-11.94.21-.53-.42-.32Zm-.21,6.51.42.31.54-.1.42-.43v-.42h-1.06Zm.64,17,.1-.75-.53-.42-.11.74Zm-.22,8.1.22.64.53-.21v-.64Zm.75-42.1.11.64,1,.53-.22-1.39Zm1.39,18.65-.64.11-.11.53,1,.75-.43.53h-.64l-.53.43.64.21.85,1,.75.11.11-.54.42.32.64-2.56-1.06.43-.54-.21.54-1.28-.86-1.07-.64-.21.54.85Zm-1-13.11.64-.43-.11.64.43.54.85.21.32-.53L579.6,27l-.53.21-.54-.42.54-1.82-.11-.42-.43.32-1-.64v2.24Zm0,20.25.42.54,1.6.85.32.53-.1-.85-.32-.53-.11.42-.32-.64-.53-.32v-.53l-.32-.32Zm.42,2.56.86,1v.64l.85,1,.21-1.92.43-.43-1,.11-.21-1.17-.75.32Zm.22,5.33-.22.53.54.11.32.43.64.32.21-.64-.43-.22-.1-.53.32-.43h-.54l-.21.75Zm.74-40.93-.74-.22v.54l.53.1Zm-.74,21.64v1.49l1.17-.53-.85-1.39Zm.32,25.58v.43l1,.74-.22-.74-.53-.54-.53.11Zm-.22-29.53h.64l.75,1.39v-1.6L578.53,31Zm0,14,.43-.22.21-.42.22.42.32-.42.32,1.28.31.53V44.88l-1.17-.43-.64.75Zm.22,13.22.85.32.21-.64-.42-.32-.22.42Zm1,5.86v-.64l-.32-.32-.22.32L579,64l-.21.53.42.22Zm-.32-34.86.32.21-.32-.64Zm1,8.1-.21-.53-.53-.11.11.54Zm1.39-8.31.21-.75-.42.32Zm.21,6,.75.21V35.6l-.21-.21Zm1.39-6.19-.43-.53h-.64l.32.43Zm-.43,12.8-.64.53,1.6,1.06.32.54.11.85.53-.11.43.32v-.85l-.75-1,.32-.42.64-.11V42.11l-.42-.22-1.5-2.24-.64-.32.22,3.1.53.21.21.43-.32.21-.32-.53Zm-.42-25.37.64.1.42.43.75.32.11-.75-.75-2.24h-.53L582.8,16l-.32.43Zm2,4.9L584.08,23l-.43-.86-.85.54-.11.63.32.43.32,1.17.32.43.64-.43-.21-1.7.42-.21.54-1.18-1.71-1.06.11.74ZM582.9,70l.43-.53.21-.74-.42-.54-.43,1.18Zm1.82-34.64-.22-.53-.85-.75-.32-.53v-.75l-.43.43v.64l1,1.38.43.32Zm-1.6-6.72.74-.21-.21-1-.53.32-.11.53Zm0-9.27,1,1.07.74.21V19.4l-.32-.32h-1.06Zm.21,13.22.75.21.42.43.32-.64-.74-1,.32-.53.42-.11-.32-1.17-.53.32-.75,1.06-.1.64Zm-.21,17.91.32.64v.53l-.32.64,1,.21.42-1.6-.64-.42Zm.21,5.33h.53l.22-.43h-.75Zm1.39-7.68h-.64l-.22.43,1,.21.22-1.49-.86-1.6-.53-.32-.21.75.1.64.75,1ZM583.54,71l.32.22.22-.43-.43-.21Zm.11-58,.64.32L585,14.5l.32-.54v-.53L585,12.9l-.54-.32h-.42Zm.21,41.9.86.21.21-.53-.21-.54-.64.32Zm.22-27.82.74-.11.22-1.39-.64.22-.43.64Zm.74-8.43-.1-.53v.75Zm.43,11.41.11-.53-.54-1.6v1.81Zm0,29.53.21-.53-.42-.22Zm2.34-41.47,1.6.32.22-.53-.22-.53-.42-.32-.32.21-.43-.21Zm.22,5.86.64.32v.64l.32.43.85-1v-.64l-.43-1.38-.64.1-.53,1Zm.21-4.37.11.64.74.75.54.21V19.4l-.75.11Zm1.17,7.47.32-.32.11-.64L588,25.9l.53,1.07Zm-.74,25.05.42-1.18-.42-.42L588,51.7Zm-.22-45.31,1.18-.74-.22-.43h-.74l-.32.64Zm.43,66.73v-.64l.32-1h-.53l-.32,1.28Zm-.43-58.41.22,1.17.64-.11.32-.42V14.6l-.43-.42-.32.74Zm0,39.76.64.21.32.53.64-.74-.64-.22-.42-.42Zm0,6.07h1.39l-.21-1.17.21-.64-.85-.32-.32,1.39Zm.54,1.92.1-.53-.42-.43-.22.64ZM589,28.46v-.32h-.53Zm-.32-19.61.75-.22-.22-.53-.53-.21-.11.32Zm.53,4.47.64-2.23-.21-.54-.53.32-.43,1.39.11.64ZM589,30.91l.43.22v.64l-.22.42-.42-.32-.11-.53Zm0,18,.53-.21.11-.75-.85-.43v.64Zm.21,17.8.64.75-.53.32-.11.64.75-.32.21-.54-.74-1.7Zm.43-21.32.32.32v.53l-.43-.42Zm.21,14.82.75-.43-.64-.42ZM590.15,10l.43-1.39h-.64v.86Zm-.21,44.24h.43v-.32h-.43Zm1.39-4.48h.42v-.43h-.42Zm1.38-37,.43-.32-.43-.32Zm.43-4.9.21-.64-.43-.43v.64Zm0,6.61.74-.32-.74-.22Zm.21,6.5,1.07-.53.53-1.18-1.17-.21-.43,1.17Zm.21,59.27.32-.43.64-.21-.32-.53-.53.1-.32.54Zm0-68.86.43.64.53.1-.42-.74.85-1.07.32-1.28L595,7.67h-.85l-.64,3.2Zm0-8.11h.54l-.54-.42Zm0,2.56,1,.64L595,5.33l-.11-.75-.74-.85-.32,1.39Zm0,9.7.32.75.54.11.64-.32.42-.54-.53-.42-.32.53h-.53Zm.32,51.17.22-.64-.32-.43-.22.64Zm-.32,10.55h.64l.11-.53-.53-.21Zm1-15.13-.21-.54h-.53l.1.64Zm-.42-3.09.42-.43-.64-.21Zm4.58-42.54,1.17-.21-.64-1.81V13.43l.43-1.28-.85-.74H598v1.06l.53,3.41Zm1.71-9.27-.75-2.45-.75-.86-.53,2.24.53,2.45-.53.43v.75l.32.64.75-.32.21-.43-.11-1.39.32-.64L599.43,7l.64-.54Zm-.54,75.58H599l.32.74.53-.1Zm.32-8.42.43.74.43-.42-.43-.54Zm.22-55.33h.42v-.43h-.42Zm3.19-12,.11,1.17-.32,2.34-.75.32-.42.54.53.21,1.39-1.28.85-.11L604.86,9l-.32-1,.22-.74L604.12,7Zm0,71.42.54-1v-.75h-.75L603.16,78Zm1.6,4.58.32-.64-.32-.53-.42.42-.11.43ZM605,4.9l.64-.21.32-.43-.64-.53-.21.53Zm5.12,1.71V5.33l-1.18-.43.22.75.42.53Zm-.64,75.47v-.64h-.54Zm.85-3,.11-.54-.32-.42v.53ZM615,82.83h.53l-.1-.64Z"/><path class="cls-1" d="M648.68.75l1-.54,8.1.75,2.13.85L661,1.6l1.6.75H664l.64.63,2.56.64,1.17.54.53,1h1.39l1,.74,1.28,1.39,1.28.42.53,1,1,.75.75.11.53,1.06,1.49,2,1.92,1.6-.43,1.17,1.71,1.92.21,1.17-.32.64,1,.43v1.38l-.21.54.42.42.64,1.92-.21,2.77-.53,1.18-.86.74-1.06.21L679,28.14l-.85.11-1.07.64-5-.22-3.94.11-1.28.32-2.45-.75-1.71-.74-.64-1-.1-.64-1.6-1.71-.53-1-.11-.74-1.17-.53-2-1.39-1.07-.43h-.64l-1.17-1.38-1.17.53h-5.12l-2.55.64-.54.43h-1.06l-1.07.64-.75,1-1,.74h-.53l.21,2.77,1.6,1.82L643.46,29l2.34,1.07.32.64,1.17-.21.64,1,1-.22,4.69,1.71L657,34.43h1.28l7,3.09,1.49,1.07H668l.54,1v.64h1.38l1.28.42,1,.75.53,1.17,1.28.32,1,.75,1.18,1.49,1.27.43L680,48.18l-.43,1.28-.53.32,1.6.75.53-.11.64,2.13.85,1v.64l-.32.32,1.6,2.67.11,1.49.64,1.6-.21.85-.43.53.21.75L684,63.64l.11.53.43.32-.43.64-.21,1.28.1,1.28-.32,1.17-1.06,2v1.28l-.43.21h-.64l.43,1.17-1.6,2h-.75l-.53.32-.64.85.21.43v.74l-1.49,1.18-.53.21-.43.53-.1.64-.64-.1-.75.74-.43-.21-1.17,1.38h-1.17l-.43-.21-.21.43v.74l-.86-.1-1.27.32-1.92,1.38-1.28.21-.75-.21-.42.32-.11.43L663.6,85l-.64.21-.74,1.07-.64-.22-1.07.32-.1-.64-.33-.32-.42.86-1.28-.43h-.85l-.22.32v.64l-1.49.11-.43-.32-3.09.85-1.38-.11-1.6-.74-1,.42H646l-2.66-.42-.53-1-.75.42-.43.54-1.28-.32-.1-.64-.85.1-.54.32-3-1-.64-.85-.43.32-.74-.74-.75.42-1.17-.53-.64.11-1.39-1.39-1.38-.21-1.5-1.5h-1.17l-.85-1.38-1.18-.21-.74-1-2-1.6-1.06-1.6-.11-.75-.85-1.06-.64-.32-.11-.75-.53-.85-.43-1.71-.53-.42.21-1-.74-1-.64-2v-2l.42-1.28.64-.86,1.07-.53h.64l-.32,1.17.32.54.64-.22,1-1.7.53-.43,1.39.21.74-.21.64.43,1.92-.22.43.43,1.28-.32h2.77L631,59.8l.64.32,2.14.11-.11.53.43.21-.54.43.43.75.43-.22.1-1.17,2,.43.1,1,.54.21,3.3,3.2,1.17.32.54,1.06,1.17-.21.21.64,1.18.43.21.64.53-.11.85.53,1.18-1L648,68l.43.43,1.28-.43L651,67.9l1.39.54,1.07-.54.53.43.53-.32.21-.53,3.63-.86.75-.85,1.17-.43.53-2.55-1.38-2.24-1.28-1.28-1.39-.43-.43-1-1.38-.1-.43-.32.43-1.39-1,.64-.64.11-.11-.64L652,55.11v.75h-1.7l-.75-1.07-1.6-1.06-.21.31v.64l-2.34-.53v-.53l.31-.32-.31-.43-.54-.1-1.28.21-1.17-1.07-1.17.32-1.81-.32V50h-.75l-.64.32v.43l-.53.11-.86-1.07-.64.43-.64.1-1.59-1.17.32-.53.1-.75-.42-1.28-.43,1.18.21,1.06-1.28-.1-1.17-.54-.85-.85L630,46.8,629,47l-.11-.43.53-1.17-.53.21-.21.43-1.39-.32-1.17-.53-1-.86-1.07-1.59-2-1.5-.85-1-1.39-2.87L618.62,36l.32-.43-1.81-2.66-.32-1.49.1-.64.43-.54-.21-.53-1-.43.42-1.7-.42-2.45.64-.22-.11-.53-.53-.21,1.06-5.33h1L618,17,619,14.6l.75-1,.53-.32.54-1.27L621.6,11l3.63-3.41,1.17-1.49h1l.64-.22,1.17-1.38,1,.64.43-1.18,1.06-.53,1.18-.21.53.1.53-.21.22-.53.74.11,1.07-.75,1.17-.43,1.81.11,1.39-.43L642.18,1l1.17-.43L645.8.21h1.92l.53.22ZM618.41,31.23l-.64.22.32.32ZM618,70.67h1.39l.1-.53-.21-.74-.53-.32-.54,1Zm.64-7.14.32.54.43-.32-.43-.54Zm4.48-34,.64.53-.64,1.07v1.7l.53.22h.85l-.21-.54-.53-.21.42-.21.53-2.14h-.64l.11-.64.85-.42-.32-.54V26h-1l-.32,3Zm0,31.12.21.54L624,61l.1-.53h-.53Zm0,10.56.42-.32.22-.64-.54.21Zm.21-52.13.53.43-.1,1.49,1,.21-.1-.64.64-1.06-.32-.64-.53-.32-.64.1Zm0,15.78.11.64.42.1.32-.74-.11-.22-.42.11Zm.43,32.62.42.74-.11.64-.31-.53-.22,1.17.32.32.11-.42.53-.11-.1-1.39.31-1V66.3l-.64-.21-.21.64Zm0-44.45.74-.22.43-.53-.64-.21-.53.21Zm2.66,20.89h.43v-.43h-.43ZM627,25.37l1.17.43.64,1.92-.53.32-1.07.1-.1.85.64,1,1,.64.21.54-.64-.11-.85-.53-.22.53v.85l2.13.43.64-1.17-.42-.22.32-.53-.21-2.56.31-.42-.74-.32-.21-.54.1-.74-.53-.43-.21-.75.42-.21,1.07.75.64.21.1-.43-.32-1.17H629l-1.28.32-.43.53Zm1-5.86-.53.21-.22.53.22.64.53-.21.21-.64ZM629,21l-1.17.64-.32.64,1.17-.11,1.38-.53,1-.75L630,21l-.64-2-.42-.32.64-.21.42-.53-1.38-1.39h1.17V14.18l-1.38.42V12.69l.21-.54.32.43.11-.75-.43-.42-.21.53-.86.64.11,1.7.32.32-.11,2.14-.32,1.38.86-.21-.22.64.54,1.81Zm-1.39,17.38.43,1.38.64.43v-2Zm.22,27.71v.85l.64-.1.1-.64.43-.32.21.64.43-1.07V64l-.64.21-.43,1.71Zm0,1.39.21,1.38h.53l.43,1.07.64.1-.22-1.17-.42-.42.42-.32v-.75l-.42-.43-.43.64Zm.64,4.37-.54-.11-.1.32.85.64.53.11.32-.43.11-1.17h-1.28ZM629,36.24l-.75.75v.75l.75.1.42.32.33-1.92-.11-1.38.42-.32.11-.75h-1.28l-.53-.21-.32-.53v.74l.75,1.71Zm.42-25.58.64.11-.21-.54ZM630,40.93l-.1-.74-.54-.22v.64Zm-.42,37.63.53-.42v-.43l-.32-.21-.32.53Zm.21-65h.53L630,13Zm.75,4.9.21-.64.64-.32-.11-.64-.53-.1L630.24,18Zm.21.64.64.21.21-.74-.42-.64-.22.64Zm.64,12.37h.32V30.7h-.32Zm.75-14.5.42-.43v-.74l-.42-.43-.11.85Zm.74,9.81-.1,1.38.32,1.07L634,30.7l.43-.11.53.32.32-1.17-.54-.21-.21-1.6.43-.75-.22-.53-.42-.32-.53.21-.43-.32-1.17-1.6.1,1.39.22.43Zm0,6.07-.42.32-.11.64.32.43.43-.64.64-.32.21.43-.64,1.38,1,.32-1.17.85-.43.54.85.42V38l-1.17.64.53,1-.53,1.6.21.64-.21,1.92.21.42.54.11-.22-1.17,1.07-.22-.21.86-.43.53,1.17,1.17.32-1.07-.32-1.06-.42-.43.42-.1-.32-.43.32-1.17-.21-1.39.42.32.54-.11v-.85l.21-.64-.32-1.06.11-.86-.32-.64.21-.74-.43-.54-.21-.85.54-.53.42.21.43-.64-1.18-1.7-1.17.74v-.74l-.21-.43-.43.75v-.54l-.32-.21-.1.85.21.75Zm-.53,32.3h.75l.42-.42-.32-.54-.64-.21v.64Zm1-56.5.21-.53-.32-.53-.64-.11-.1.64.21.32Zm-.64-2.55h.43l-.22-.54Zm1.39,6-.32.53-1.07.64.64.1,1.81,1.39-.1-1.92-.33-.42Zm.63,6.82-.42.53-1.17.85L633,22.39l-.32.42.43.32v.75l.21.53.32-.64.64-.32.42,1,.33-.53v-.54l-.43-1.27.1-.43.43-.43-.1-.53-.33-.32v-.64h.75v-.64l-.75-.64-.1-.64.53-1.49-.64-.43-.42-1.06-.54-.43V17l.32,1.17.43.43ZM632.9,72.59h.64l-.21-.42-.43-.11Zm0,6.08h.64l-.42-.53Zm.22-52.13h.42V27h-.42Zm.42-15.35.32-.1.43.32.21-1.18-.74-.21-.43.64Zm1,60.44-.21-5.54-.53-.21v1.17l-.43,2.66.32,1.18.32.42ZM634,74.94l.11-.32.42-.21h-.74Zm.32-2.13.21-.43-.42-.32Zm.64,3.94h.32V76h-.32Zm3.73-64.6-.11.75-.42.32-.64.1v.75l.21.53.11-.32.32.32h.74l-.1-.64.42-.42.64-.22v-.63l.43-1.39-.43-.64-.53,1.28Zm-1.17,17.16.21.64.53.32.43-.42.21-.75h-.64l-.42-.21-.11.64ZM638,37v-.53l-.53.1Zm2,4.69.11-.85-.21-.64-.53-.43-.33-1.38-.42-.43-.85,2.45v.75l.53.21.11.53h-.75v1.39l.32,1,1.17-.53.64-1V41.57ZM637.7,76l.11.32.64-.1.21-.43-.21-.43-.43.22ZM638,34.22h.75l.42.21-.32-2.56,1-.21-.42-.53-.54-.22-.64.54-.42,1.28ZM638,21l.53.21.75-.1.32-.43h-1.17Zm1.06,16.74.75.32.53-.11-.21-.85L639.41,36l-.22-.64L638,35.07l1.17,1.71Zm-.63,9.48h.63l-.85-2.13-.1.85.21.64Zm0,27.19.63-.22.33-.53.42-.11-.75-3.84-.42-.42-.53,1.17.21,1.28,1.07,1.71-.64.32Zm-.22,10.76h.43v-.32h-.43Zm1-74.94.22-.42-.11-.54-.43-.21-.32.53v.54Zm0,8.85.11-1.28.53-.64-.21-.42V16.1l-.54.21-.53,1.17.32,1.28Zm0,59.59.53-.32.32-.64-.85-.21-.21.74Zm0-29.63.22-.43-.33-.43ZM640.58,40v-.74l.42-.43h-.42l-.22-.21V40Zm3.2-3.73h.42l.54-1.17-.54-.32-1.28.32-.1,2.45-.43.43,1-.53.21-.64ZM642.39,77.5l.53.21,1.07-.43-.43-1.17.43-.53-1.07-.64-.32.53v1.39Zm.21-65.67.54.32-.22,1.17.75-.1.21-.53.43-.32V13l.43.32.64-.32-.33-.74-2.23-1.07Zm.32,30.28.64.74-.85,1-.11.64,1.18.64-.54.32-.64-.11.11,1.39.43,1-.32.32.85,2.13.53.43.11-2.24.21-.64-1-.21,1.18-1.18-.22-.42V45.2l-.32-.75.54-1.38-.75-.22-.43-1.7.43-.22.21-.42-.21-.43-.43-.11-.32,1.71Zm.43-7.89v-.53h-.53ZM643.14,6.5H644V6l-.43-.32Zm.21,73,1-.21v-.53l-.32-.43h-.64Zm.21-64,.54-.42-.32-.54-.32.54ZM644,39.33l.32-1.17.53-.85.11-.75-.64.11-.32.43-.43-.11.11,1.92Zm-.43,6.72.22.53-.22.22Zm0,23.56.43.21-.43-.53Zm.22,2.77L644,72l-.21-.53-.22.64Zm.74-39.33-.53-.22.21.43Zm.86,5.86-.86.21.53.21Zm-.22,2.45.43-.32-.43-.32Zm2.88-.64-.11,1.17.75,1.6-.53.11-.22-.53-.1.74.85,2-.21.64.85.53.21-2.56-.21-1.17.43-.32.1-1.28-.42-1.17h-1l-.22-.64-.53-.11.64,1-.11.43Zm-.11,5.76v-.54l-.21.11Zm0-11.3v1.06l.54-.53v-.64ZM648,76.75h1.28l-.11-.75-.32-.32-.64-.1-.1.53Zm.43-72.81v.54l1,.21-.11-.64-.43-.32Zm.21,35.18.53-.11.32-.53.11-1.28-.21-.64h-.54l.11.64-.43,1.28Zm0-31,.21.64-.1.53.32.32.53-1.49-.53-.21Zm0,41.68h.43v-.43h-.43Zm0,32.51.53,1.18.64.21V83l-.42-1Zm.43-67.58h.32v-.32h-.32ZM649.85,74l-.1-.75-.32-.42-.11.64Zm-.42-55.86h.42V17.7h-.42Zm.42,32.62.43-.21.21-.54-.42-.21h-.64l.1.53ZM652.2,10l.53-.32.21-.64-.1-.64-.43-.32-.11,1.28Zm0,35.07.42.11.54-.32-.54-.22Zm1.38-33.68v1.17l-1.17.21v.64l.75.75.32-.64.53-.32.74.1-.42-1.27-.75-1-.21-.64-.53-.22-.11.64.21.64Zm-.21,30.27v-.53h-.53l.1.42Zm0,1.6H654l-.64-.43Zm1.17-37.74-.1-1.06-.86.21.43.43Zm-1,4.48,1,.21L654.44,9,654,8.63l-.43.54Zm.64,37,.32-.53.21-1.28L654.44,44l-.43-.31-.43,2.34.22.53Zm.53-44.66L654.44,2l-.64-.11.21.53.32.22Zm-1,39.12.74.21.21-.64-.31-.53L654,41Zm.42,9.48-.42.64.32.75.42.43.21-4.8h-.53l-.42,1.38.32,1.07Zm0,24.2-.1-.53-.32-.21v.53Zm.53-21.42-.21-.54L654,53v.64l.32.32Zm-.21,28.67.21-.43-.31-.32-.22.54Zm3.63-65.24V16.1h-.64l.1.74ZM657.74,44l-.21,1.07.53-.11.64-1-.43-.31Zm.21,7.57V51l-.21-.42-.21.64Zm0-8.74-.21-1-.11.54Zm.22,6.93.1.64.64.11v-1Zm.32-1.6,1.06.64.32-1.17-.32-1.28-.85-.75-.43.64v1.18Zm.21-39.12.32.75.53.42.53-1.38-.85.1Zm0,5.33.64-.21.32-.54-.32-.42-.43.42Zm.85,3.94v-.85h-.85l.21.64ZM659.66,53v-.53l-1-.54.11.64.32.32Zm-.75-9.06h.75v-.85l-.32-.32-.11.64Zm.43,29.85-.43.42,1.39-1-.64-.1Zm.32,6.71-.11-.74-.42-.43-.22.53.22.54Zm-.32-4.16.53.22.75-1.18-.32-.63-1,.53-.21.53Zm0-31h.53v-.64h-.32Zm3.52,1h.53l-.21-.42-.54-.43ZM663.07,17l.32-1.07-.53.11-.11.64Zm1.39,25.9-.11-.64-1.49-.32.32.64.53.32Zm-1.6,8.85h.42v-.32h-.42Zm0,16.42.1.64.54.1.53-.42-.21-.54-.32.22Zm.21,6.82.11.53.64.11v-.85Zm.21-27.5.32.64.64-.11-.32-.75Zm.11,11.62.85.53.22-1-.75.11Zm.21-40.94.32,1.81.32.54.43-2.35-.53-.1Zm.22,32.41.21-.32.43.21.1-.75.43-.53-.21-.32-.64.22-.43.42-.11.53Zm.42-39.12V11l-.53.11ZM664,71.85l.21-.86-.53.32Zm-.21-16.21.74-.21-.1-.53-.43.32ZM665.63,70H666v-.42h-.32Zm2.77-59.26.32-.54h-1l.11.43Zm-.64,36.67,1,.74.64.22v-.64l.43-1-1.28.53Zm.43,11.83.21-.64-.64.21Zm0,15.67h.74l.22-.75-.54-.1-.85-.86ZM668,21.64v.53l.43.22.32-1Zm.22-15.14.74-.21-.42-.75-.22.32Zm.21,57.89.32-.86-.53.32Zm.11-45.31h.64l-.64-.43Zm.21,60.44.43-.21.21-.43h-.64Zm4.37-15.77.43.53.64.21.53-.32-1.07-.53Zm1.39-8.11-.11-.53-.32-.21-.11.53Zm-.43-2.13.53.22.32-.43-.53-.11Zm1,25.8.43-.32-.43-.32Zm2.56-31.66.64.21-.22-.42Zm1.17,17.27-.32-.53-.21.42Zm.21-4,.11-.64-.43-.32-.21.64Zm3.41,8.11-.21,1.38.53-.43V68.86Z"/><path class="cls-1" d="M283.19,106.77a.38.38,0,0,1,.51-.16l2,.89a.31.31,0,0,1,.13.44,5.93,5.93,0,1,1,0-5.94.33.33,0,0,1-.13.45l-2,.9a.37.37,0,0,1-.51-.15,3.11,3.11,0,0,0-5.66,1.79,3.11,3.11,0,0,0,5.66,1.78Z"/><path class="cls-1" d="M291,105a6.06,6.06,0,1,1,6.06,5.92A6,6,0,0,1,291,105Zm3,0a3.11,3.11,0,1,0,3.11-3.11A3.1,3.1,0,0,0,294,105Z"/><path class="cls-1" d="M311.75,110.34a.35.35,0,0,1-.35.35h-2.21a.35.35,0,0,1-.35-.35V99.63a.35.35,0,0,1,.35-.35H311a.71.71,0,0,1,.57.28l4.7,5.86a.1.1,0,0,0,.18,0V99.63a.35.35,0,0,1,.35-.35H319a.35.35,0,0,1,.35.35v10.71a.35.35,0,0,1-.35.35H317.2a.74.74,0,0,1-.58-.28l-4.69-5.85a.1.1,0,0,0-.18.06Z"/><path class="cls-1" d="M333.64,106.77a.38.38,0,0,1,.51-.16l2,.89a.31.31,0,0,1,.13.44,5.93,5.93,0,1,1,0-5.94.33.33,0,0,1-.13.45l-2,.9a.37.37,0,0,1-.51-.15,3.11,3.11,0,1,0,0,3.57Z"/><path class="cls-1" d="M342.36,110.69a.35.35,0,0,1-.35-.35V99.63a.35.35,0,0,1,.35-.35h8.06a.36.36,0,0,1,.36.35v2.14a.36.36,0,0,1-.36.35h-5.19a.29.29,0,0,0-.29.29v1a.3.3,0,0,0,.29.3h4.16a.35.35,0,0,1,.35.35v1.94a.35.35,0,0,1-.35.35h-4.16a.3.3,0,0,0-.29.3v.88a.29.29,0,0,0,.29.29h5.19a.36.36,0,0,1,.36.35v2.12a.36.36,0,0,1-.36.35Z"/><path class="cls-1" d="M356.69,99.63a.35.35,0,0,1,.35-.35h5.22a3.91,3.91,0,0,1,4.27,4.17,4,4,0,0,1-2,3.66.26.26,0,0,0-.08.38l2.09,2.91a.18.18,0,0,1-.15.29h-2.79a.7.7,0,0,1-.56-.29l-1.78-2.53a.61.61,0,0,0-.47-.24h-.91a.3.3,0,0,0-.29.3v2.41a.35.35,0,0,1-.35.35H357a.35.35,0,0,1-.35-.35Zm5.41,2.31h-2.21a.29.29,0,0,0-.29.29v2.46a.3.3,0,0,0,.29.3h2.21a1.43,1.43,0,0,0,1.61-1.51A1.41,1.41,0,0,0,362.1,101.94Z"/><path class="cls-1" d="M371.9,102.12a.35.35,0,0,1-.35-.35V99.63a.35.35,0,0,1,.35-.35h9.34a.35.35,0,0,1,.35.35v2.14a.35.35,0,0,1-.35.35h-2.91a.29.29,0,0,0-.29.29v7.93a.36.36,0,0,1-.36.35h-2.22a.35.35,0,0,1-.35-.35v-7.93a.29.29,0,0,0-.29-.29Z"/><path class="cls-1" d="M386.7,107.68a.39.39,0,0,1,.38-.41h2c.34,0,.41.07.59.38s.8.73,1.83.73,1.45-.37,1.45-.7c0-.49-.58-.78-1.95-1.25-1.82-.6-4.2-1.47-4.2-3.83,0-2.18,1.86-3.54,4.46-3.54s4.52,1.39,4.67,3.44a.41.41,0,0,1-.38.41h-2c-.28,0-.41-.13-.5-.4a1.67,1.67,0,0,0-1.7-.92c-1,0-1.39.4-1.39.78s.53.68,1.89,1.15c1.58.56,4.27,1.49,4.27,4,0,2.22-1.93,3.39-4.54,3.39S386.9,109.77,386.7,107.68Z"/><path class="cls-1" d="M410.81,110.69a.35.35,0,0,1-.35-.35V99.63a.35.35,0,0,1,.35-.35h7.77a.35.35,0,0,1,.35.35v2.14a.35.35,0,0,1-.35.35h-4.92a.29.29,0,0,0-.29.29v1.43a.3.3,0,0,0,.29.3h4a.35.35,0,0,1,.35.35v1.94a.36.36,0,0,1-.35.36h-4a.29.29,0,0,0-.29.29v3.26a.35.35,0,0,1-.35.35Z"/><path class="cls-1" d="M424,105a6.06,6.06,0,1,1,6.06,5.92A6,6,0,0,1,424,105Zm2.95,0a3.11,3.11,0,1,0,3.11-3.11A3.1,3.1,0,0,0,427,105Z"/><path class="cls-1" d="M441.83,99.63a.35.35,0,0,1,.35-.35h5.22a3.92,3.92,0,0,1,4.28,4.17,4,4,0,0,1-2,3.66.25.25,0,0,0-.09.38l2.09,2.91a.18.18,0,0,1-.14.29h-2.8a.71.71,0,0,1-.56-.29l-1.78-2.53a.58.58,0,0,0-.47-.24H445a.3.3,0,0,0-.29.3v2.41a.35.35,0,0,1-.35.35h-2.21a.35.35,0,0,1-.35-.35Zm5.41,2.31H445a.29.29,0,0,0-.29.29v2.46a.3.3,0,0,0,.29.3h2.21a1.43,1.43,0,0,0,1.61-1.51A1.41,1.41,0,0,0,447.24,101.94Z"/><path class="cls-1" d="M469,99.6a.51.51,0,0,1,.48-.32h2.19a.54.54,0,0,1,.49.32l4.34,10.77a.23.23,0,0,1-.22.32h-2.48a.5.5,0,0,1-.47-.32l-.41-1.07a.43.43,0,0,0-.4-.28h-3.9a.43.43,0,0,0-.4.28l-.41,1.07a.5.5,0,0,1-.47.32h-2.48a.23.23,0,0,1-.22-.32Zm2.53,6.78a.21.21,0,0,0,.19-.28l-1-2.8a.11.11,0,0,0-.21,0l-1,2.8a.21.21,0,0,0,.19.28Z"/><path class="cls-1" d="M484.91,110.34a.36.36,0,0,1-.36.35h-2.21a.35.35,0,0,1-.35-.35V99.63a.35.35,0,0,1,.35-.35h1.78a.73.73,0,0,1,.57.28l4.69,5.86a.1.1,0,0,0,.18,0V99.63a.35.35,0,0,1,.35-.35h2.21a.35.35,0,0,1,.35.35v10.71a.35.35,0,0,1-.35.35h-1.77a.71.71,0,0,1-.57-.28l-4.7-5.85c-.06-.09-.17,0-.17.06Z"/><path class="cls-1" d="M499.07,110.69a.35.35,0,0,1-.35-.35V99.63a.35.35,0,0,1,.35-.35H504c3.58,0,5.41,2.6,5.41,5.71s-1.83,5.7-5.41,5.7Zm4.73-8.57h-1.86a.3.3,0,0,0-.3.29v5.17a.3.3,0,0,0,.3.29h1.86a2.88,2.88,0,0,0,0-5.75Z"/><path class="cls-1" d="M524.13,110.69a.35.35,0,0,1-.35-.35V99.63a.35.35,0,0,1,.35-.35h5.33c2.46,0,3.7,1.33,3.7,3.14a2.59,2.59,0,0,1-1.14,2.26.14.14,0,0,0,0,.26,2.64,2.64,0,0,1,1.63,2.53c0,1.89-1.4,3.22-3.71,3.22Zm5.15-8.75H527a.29.29,0,0,0-.29.29v1.23a.3.3,0,0,0,.29.3h2.12c.79,0,1.09-.37,1.09-.91A.84.84,0,0,0,529.28,101.94Zm.36,4.1H527a.29.29,0,0,0-.29.29v1.42a.29.29,0,0,0,.29.29h2.64c.79,0,1.08-.42,1.08-1S530.43,106,529.64,106Z"/><path class="cls-1" d="M540.83,99.28a.61.61,0,0,1,.53.31l2.19,3.58a.16.16,0,0,0,.29,0l2.2-3.6a.67.67,0,0,1,.54-.29h2.75a.18.18,0,0,1,.16.29l-4.17,6.69a1,1,0,0,0-.16.54v3.54a.35.35,0,0,1-.35.35H542.6a.35.35,0,0,1-.35-.35V106.8a1,1,0,0,0-.16-.54l-4.16-6.69a.18.18,0,0,1,.16-.29Z"/><path class="cls-1" d="M562.34,107.68a.39.39,0,0,1,.38-.41h2c.34,0,.41.07.59.38s.8.73,1.83.73,1.45-.37,1.45-.7c0-.49-.57-.78-1.95-1.25-1.81-.6-4.2-1.47-4.2-3.83,0-2.18,1.86-3.54,4.46-3.54s4.53,1.39,4.67,3.44a.4.4,0,0,1-.38.41h-2c-.28,0-.41-.13-.5-.4a1.67,1.67,0,0,0-1.7-.92c-1,0-1.39.4-1.39.78s.53.68,1.89,1.15c1.58.56,4.27,1.49,4.27,4,0,2.22-1.93,3.39-4.53,3.39S562.54,109.77,562.34,107.68Z"/><path class="cls-1" d="M577.14,102.12a.36.36,0,0,1-.35-.35V99.63a.36.36,0,0,1,.35-.35h9.34a.35.35,0,0,1,.35.35v2.14a.35.35,0,0,1-.35.35h-2.91a.29.29,0,0,0-.29.29v7.93a.36.36,0,0,1-.36.35H580.7a.35.35,0,0,1-.35-.35v-7.93a.29.29,0,0,0-.29-.29Z"/><path class="cls-1" d="M599.79,99.63a.36.36,0,0,1,.36-.35h2.21a.35.35,0,0,1,.35.35v6.07a5.25,5.25,0,0,1-10.5,0V99.63a.36.36,0,0,1,.36-.35h2.22a.35.35,0,0,1,.35.35v5.9c0,1.65.79,2.56,2.31,2.56s2.34-.91,2.34-2.56Z"/><path class="cls-1" d="M609.14,110.69a.35.35,0,0,1-.35-.35V99.63a.35.35,0,0,1,.35-.35h5c3.57,0,5.4,2.6,5.4,5.71s-1.83,5.7-5.4,5.7Zm4.73-8.57H612a.29.29,0,0,0-.29.29v5.17a.29.29,0,0,0,.29.29h1.86a2.88,2.88,0,0,0,0-5.75Z"/><path class="cls-1" d="M625.61,110.69a.36.36,0,0,1-.36-.35V99.63a.36.36,0,0,1,.36-.35h8.06a.35.35,0,0,1,.35.35v2.14a.35.35,0,0,1-.35.35h-5.2a.29.29,0,0,0-.29.29v1a.3.3,0,0,0,.29.3h4.16a.35.35,0,0,1,.35.35v1.94a.35.35,0,0,1-.35.35h-4.16a.3.3,0,0,0-.29.3v.88a.29.29,0,0,0,.29.29h5.2a.35.35,0,0,1,.35.35v2.12a.35.35,0,0,1-.35.35Z"/><path class="cls-1" d="M642.84,110.34a.35.35,0,0,1-.35.35h-2.21a.35.35,0,0,1-.35-.35V99.63a.35.35,0,0,1,.35-.35h1.77a.71.71,0,0,1,.57.28l4.7,5.86a.1.1,0,0,0,.18,0V99.63a.35.35,0,0,1,.35-.35h2.21a.35.35,0,0,1,.35.35v10.71a.35.35,0,0,1-.35.35h-1.77a.74.74,0,0,1-.58-.28L643,104.56a.1.1,0,0,0-.18.06Z"/><path class="cls-1" d="M656.3,102.12a.35.35,0,0,1-.35-.35V99.63a.35.35,0,0,1,.35-.35h9.34a.35.35,0,0,1,.35.35v2.14a.35.35,0,0,1-.35.35h-2.91a.3.3,0,0,0-.3.29v7.93a.35.35,0,0,1-.35.35h-2.22a.35.35,0,0,1-.35-.35v-7.93a.29.29,0,0,0-.3-.29Z"/><path class="cls-1" d="M671.1,107.68a.39.39,0,0,1,.38-.41h2c.34,0,.41.07.59.38s.8.73,1.83.73,1.45-.37,1.45-.7c0-.49-.58-.78-2-1.25-1.82-.6-4.2-1.47-4.2-3.83,0-2.18,1.86-3.54,4.46-3.54s4.52,1.39,4.67,3.44a.41.41,0,0,1-.38.41h-2c-.28,0-.41-.13-.5-.4a1.67,1.67,0,0,0-1.7-.92c-1,0-1.39.4-1.39.78s.53.68,1.89,1.15c1.58.56,4.27,1.49,4.27,4,0,2.22-1.93,3.39-4.54,3.39S671.3,109.77,671.1,107.68Z"/></g></g></svg>